<svg width="544" height="704" fill="none" xmlns="http://www.w3.org/2000/svg"><path fill="#E6E6E6" d="M0 0h544v704H0z"/><path d="m53.29 57.667-.426-3.456.427.384c-.228 1.08-.69 1.92-1.387 2.517-.697.598-1.593.896-2.688.896-1.166 0-2.19-.32-3.072-.96-.868-.64-1.536-1.55-2.005-2.73-.456-1.195-.683-2.596-.683-4.203 0-1.607.227-3.008.683-4.203.469-1.209 1.137-2.133 2.005-2.773.882-.64 1.906-.96 3.072-.96.825 0 1.6.206 2.325.619.74.398 1.366.96 1.878 1.685.526.711.896 1.536 1.109 2.475l-1.877.128c-.242-.953-.676-1.714-1.302-2.283-.611-.583-1.322-.875-2.133-.875-.825 0-1.529.242-2.112.726-.583.483-1.024 1.187-1.323 2.112-.298.924-.448 2.04-.448 3.349 0 1.308.15 2.425.448 3.35.299.91.74 1.606 1.323 2.09.583.47 1.287.704 2.112.704.668 0 1.266-.192 1.792-.576.526-.398.953-.939 1.28-1.621.341-.683.533-1.444.576-2.283h-3.648v-1.75h5.397v7.638h-1.322ZM66.894 42.52v1.75h-7.701v4.949h7.445v1.707h-7.445v4.992h7.872v1.749H57.4V42.52h9.493Zm12.109 1.75h-3.456v11.648h3.584v1.749h-8.96v-1.75h3.584V44.27h-3.456v-1.75h8.704v1.75Zm4.92 8.448c.128.682.37 1.287.725 1.813s.81.931 1.365 1.216c.57.284 1.216.427 1.942.427.597 0 1.123-.086 1.578-.256.47-.185.832-.448 1.088-.79.27-.355.406-.782.406-1.28 0-.754-.335-1.38-1.003-1.877-.668-.512-1.72-.974-3.157-1.387-1.323-.37-2.404-.896-3.243-1.578-.84-.683-1.259-1.579-1.259-2.688 0-.825.206-1.55.619-2.176a4.092 4.092 0 0 1 1.685-1.451c.726-.341 1.536-.512 2.432-.512.982 0 1.87.206 2.667.619a4.96 4.96 0 0 1 1.941 1.728c.484.725.775 1.543.875 2.453l-1.877.128a3.708 3.708 0 0 0-.64-1.664 3.22 3.22 0 0 0-1.28-1.11 3.726 3.726 0 0 0-1.728-.405c-.797 0-1.465.22-2.006.662-.54.44-.81 1.016-.81 1.728 0 .554.163 1.01.49 1.365.342.355.754.633 1.238.832.483.2 1.145.42 1.984.661.042 0 .106.022.192.064 1.436.427 2.588 1.01 3.456 1.75.867.725 1.301 1.621 1.301 2.688 0 .881-.242 1.65-.725 2.304a4.506 4.506 0 0 1-1.899 1.45 6.35 6.35 0 0 1-2.475.491c-1.024 0-1.962-.213-2.816-.64a5.42 5.42 0 0 1-2.048-1.792c-.526-.768-.825-1.65-.896-2.645l1.878-.128Zm21.837-8.448h-4.63v13.397h-1.792V44.27h-4.629v-1.75h11.051v1.75ZM54.592 66.491h-4.63V79.89h-1.791V66.49h-4.63v-1.749h11.051v1.75Zm3.896-1.749 3.392 6.89 3.37-6.89h2.027l-4.501 8.96v6.187h-1.792v-6.187l-4.523-8.96h2.027Zm16.269 0c1.109 0 2.062.185 2.858.555.811.355 1.43.881 1.856 1.578.427.683.64 1.494.64 2.432 0 .982-.213 1.82-.64 2.518-.426.697-1.045 1.23-1.856 1.6-.796.37-1.749.554-2.858.554h-2.774v5.91h-1.792V64.742h4.566Zm0 7.488c1.152 0 2.02-.242 2.602-.725.583-.498.875-1.23.875-2.198 0-.938-.292-1.642-.875-2.112-.583-.469-1.45-.704-2.602-.704h-2.774v5.739h2.774Zm17.72-7.488v1.75h-7.702v4.949h7.445v1.706h-7.445v4.992h7.872v1.75h-9.664V64.742h9.493Zm12.642 0v1.75h-8.384l.896-.897v6.955l-.896-.939h8v1.728h-8l.896-.917v7.467h-1.792V64.742h9.28Zm6.711 0h2.39l4.629 15.147h-1.835l-3.989-13.568-3.989 13.568h-1.835l4.629-15.147Zm-2.304 10.816.619-1.643h5.76l.619 1.643h-6.998Zm21.965-.427c-.298 1.593-.917 2.845-1.856 3.755-.938.896-2.112 1.344-3.52 1.344-1.223 0-2.282-.32-3.178-.96-.882-.64-1.551-1.55-2.006-2.73-.455-1.181-.682-2.582-.682-4.203 0-1.636.227-3.044.682-4.224.455-1.195 1.124-2.112 2.006-2.752.896-.64 1.955-.96 3.178-.96 1.323 0 2.439.42 3.35 1.258.91.84 1.543 2.006 1.898 3.499l-1.92.128c-.27-.996-.689-1.764-1.258-2.304-.569-.555-1.259-.832-2.07-.832-.853 0-1.578.242-2.176.725-.583.484-1.031 1.188-1.344 2.112-.313.925-.469 2.041-.469 3.35 0 1.308.156 2.425.469 3.349.313.91.761 1.607 1.344 2.09.598.47 1.323.705 2.176.705.882 0 1.622-.299 2.219-.896.612-.612 1.031-1.472 1.259-2.582l1.898.128Zm12.152-10.389v1.75h-7.701v4.949h7.445v1.706h-7.445v4.992h7.872v1.75h-9.664V64.742h9.493ZM49.045 102.367c-1.223 0-2.31-.334-3.264-1.002-.953-.669-1.7-1.6-2.24-2.795-.526-1.195-.789-2.553-.789-4.075 0-1.522.263-2.88.79-4.074.54-1.195 1.286-2.127 2.24-2.795.952-.669 2.04-1.003 3.263-1.003 1.223 0 2.311.334 3.264 1.003.953.668 1.7 1.6 2.24 2.795.54 1.194.811 2.552.811 4.074 0 1.522-.27 2.88-.81 4.075-.541 1.195-1.288 2.126-2.24 2.795-.954.668-2.042 1.002-3.265 1.002Zm0-1.429c.982 0 1.842-.263 2.582-.789.74-.527 1.308-1.273 1.706-2.24.398-.968.598-2.105.598-3.414 0-1.308-.2-2.446-.598-3.413-.398-.967-.967-1.714-1.706-2.24-.74-.526-1.6-.79-2.582-.79-.981 0-1.842.264-2.581.79-.725.526-1.287 1.28-1.685 2.261-.399.967-.598 2.098-.598 3.392s.2 2.432.598 3.414c.398.967.96 1.713 1.685 2.24.74.526 1.6.789 2.581.789Zm2.134-7.936c-.086-.597-.313-1.06-.683-1.387a1.809 1.809 0 0 0-1.301-.512c-.768 0-1.352.299-1.75.896-.384.583-.576 1.422-.576 2.518 0 1.08.192 1.92.576 2.517.398.583.982.875 1.75.875.526 0 .974-.178 1.344-.534.37-.37.604-.881.704-1.536l1.429.107c-.128 1.024-.52 1.849-1.173 2.475-.655.611-1.423.917-2.304.917-1.138 0-2.048-.434-2.731-1.301-.683-.882-1.024-2.056-1.024-3.52 0-.968.156-1.814.47-2.539.312-.74.746-1.308 1.3-1.707.57-.398 1.23-.597 1.985-.597.554 0 1.08.135 1.578.405.498.256.91.633 1.238 1.131.327.484.526 1.045.597 1.685l-1.43.107Zm5.666-1.515c.142-.938.448-1.77.917-2.496a4.924 4.924 0 0 1 1.856-1.728c.782-.426 1.664-.64 2.646-.64.91 0 1.728.192 2.453.576.725.37 1.294.882 1.707 1.536.426.654.64 1.387.64 2.198 0 1.01-.349 1.92-1.046 2.73-.682.797-1.678 1.586-2.986 2.368-.939.54-1.878 1.23-2.816 2.07-.925.839-1.401 1.593-1.43 2.261h8.384v1.749H56.568c0-1.251.241-2.325.725-3.221.483-.91 1.067-1.65 1.75-2.219.682-.583 1.578-1.223 2.687-1.92.228-.156.448-.291.662-.405.213-.157.433-.313.661-.47.668-.483 1.188-.967 1.557-1.45.384-.498.576-.996.576-1.493a2.33 2.33 0 0 0-.384-1.323 2.425 2.425 0 0 0-1.024-.896c-.44-.228-.945-.341-1.514-.341-.939 0-1.714.284-2.326.853-.611.555-1.017 1.351-1.216 2.39l-1.877-.129Zm17.805 10.966c-1.095 0-2.048-.32-2.859-.96-.796-.64-1.415-1.55-1.856-2.731-.426-1.195-.64-2.596-.64-4.203 0-1.621.214-3.029.64-4.224.441-1.194 1.06-2.112 1.856-2.752.811-.64 1.764-.96 2.859-.96s2.04.32 2.837.96c.811.64 1.43 1.558 1.856 2.752.441 1.195.662 2.603.662 4.224 0 1.607-.22 3.008-.662 4.203-.426 1.18-1.045 2.091-1.856 2.731-.796.64-1.742.96-2.837.96Zm0-1.75c.711 0 1.323-.249 1.835-.746.526-.498.931-1.21 1.216-2.134.298-.938.448-2.026.448-3.264 0-1.251-.15-2.34-.448-3.264-.285-.938-.69-1.657-1.216-2.154a2.504 2.504 0 0 0-1.835-.768c-.711 0-1.33.256-1.856.768-.512.497-.917 1.216-1.216 2.154-.285.925-.427 2.013-.427 3.264 0 1.238.142 2.326.427 3.264.299.925.704 1.636 1.216 2.134a2.614 2.614 0 0 0 1.856.746Zm7.778-9.216c.142-.938.448-1.77.918-2.496a4.923 4.923 0 0 1 1.856-1.728c.782-.426 1.664-.64 2.645-.64.91 0 1.728.192 2.453.576.726.37 1.294.882 1.707 1.536.427.654.64 1.387.64 2.198 0 1.01-.349 1.92-1.045 2.73-.683.797-1.679 1.586-2.987 2.368-.939.54-1.877 1.23-2.816 2.07-.925.839-1.4 1.593-1.43 2.261h8.385v1.749H82.15c0-1.251.242-2.325.725-3.221.484-.91 1.067-1.65 1.75-2.219.682-.583 1.578-1.223 2.688-1.92.227-.156.448-.291.661-.405.213-.157.434-.313.661-.47.669-.483 1.188-.967 1.558-1.45.384-.498.576-.996.576-1.493a2.33 2.33 0 0 0-.384-1.323 2.426 2.426 0 0 0-1.024-.896c-.441-.228-.946-.341-1.515-.341-.939 0-1.714.284-2.325.853-.612.555-1.017 1.351-1.216 2.39l-1.878-.129Zm17.677 1.707a3.854 3.854 0 0 0 1.472-.235c.47-.185.854-.476 1.152-.874.299-.399.448-.903.448-1.515 0-.44-.121-.825-.362-1.152-.242-.341-.598-.597-1.067-.768-.455-.185-1.003-.277-1.643-.277-.782 0-1.436.184-1.962.554-.527.356-.84.84-.939 1.451l-1.877-.128a3.664 3.664 0 0 1 .789-1.856 4.709 4.709 0 0 1 1.707-1.301 5.507 5.507 0 0 1 2.282-.47c.967 0 1.821.171 2.56.512.754.327 1.337.79 1.75 1.387.426.597.64 1.28.64 2.048 0 .967-.292 1.75-.875 2.347s-1.451.995-2.603 1.194l.022-.362c.853.156 1.571.426 2.154.81.598.384 1.046.868 1.344 1.451.313.569.47 1.216.47 1.941 0 .868-.228 1.643-.683 2.326-.455.682-1.102 1.216-1.941 1.6-.825.384-1.771.576-2.838.576-.995 0-1.891-.178-2.688-.534-.782-.369-1.408-.874-1.877-1.514a4.046 4.046 0 0 1-.747-2.176l1.835-.128c.085.853.47 1.5 1.152 1.941.683.441 1.458.661 2.325.661.726 0 1.359-.113 1.899-.341.555-.242.974-.583 1.259-1.024.298-.44.448-.953.448-1.536 0-.597-.15-1.11-.448-1.536-.285-.44-.704-.775-1.259-1.003-.54-.242-1.173-.355-1.899-.341l-1.152.021v-1.77l1.152.021ZM45.12 109.186l4.203 14.059h-.512l4.202-14.059h1.92l-4.693 15.147h-2.347L43.2 109.186h1.92Zm21.773 0v1.75h-7.701v4.949h7.445v1.707h-7.445v4.992h7.872v1.749H57.4v-15.147h9.493Zm7.693 0c1.607 0 2.866.413 3.776 1.238.924.81 1.387 1.92 1.387 3.328 0 .668-.157 1.28-.47 1.834a3.58 3.58 0 0 1-1.194 1.323c-.484.327-.989.505-1.515.533l-.661-.256c1.209 0 2.076.207 2.602.619.54.398.86 1.088.96 2.069l.427 4.459h-1.813l-.384-4.288c-.057-.668-.342-1.138-.854-1.408-.497-.284-1.308-.427-2.432-.427h-2.794v6.123h-1.792v-15.147h4.757Zm0 7.275c1.052 0 1.863-.235 2.432-.704s.853-1.152.853-2.048c0-.882-.284-1.564-.853-2.048s-1.38-.725-2.432-.725h-2.965v5.525h2.965Zm18.53 3.115c-.298 1.593-.917 2.844-1.856 3.754-.938.896-2.112 1.344-3.52 1.344-1.223 0-2.282-.32-3.178-.96-.882-.64-1.55-1.55-2.006-2.73-.455-1.181-.682-2.582-.682-4.203 0-1.636.227-3.044.682-4.224.455-1.195 1.124-2.112 2.006-2.752.896-.64 1.955-.96 3.178-.96 1.323 0 2.44.42 3.35 1.259.91.839 1.543 2.005 1.898 3.498l-1.92.128c-.27-.995-.69-1.763-1.258-2.304-.57-.554-1.259-.832-2.07-.832-.853 0-1.578.242-2.176.726-.583.483-1.03 1.187-1.344 2.112-.313.924-.469 2.041-.469 3.349 0 1.308.156 2.425.47 3.349.312.911.76 1.607 1.343 2.091.598.469 1.323.704 2.176.704.882 0 1.622-.299 2.219-.896.611-.612 1.031-1.472 1.259-2.581l1.898.128Zm12.152-10.39v1.75h-7.701v4.949h7.445v1.707h-7.445v4.992h7.872v1.749h-9.664v-15.147h9.493Zm3.298 0h1.792v14.294l-.917-.896h8.939v1.749h-9.814v-15.147ZM66.453 131.353l4.203 14.059h-.512l4.203-14.059h1.92L71.573 146.5h-2.346l-4.694-15.147h1.92Zm21.41 7.894v1.621H78.52v-1.621h9.344Zm13.603 5.504v1.749H90.821v-1.749h10.645Zm-7.979-11.03c.811 0 1.401-.185 1.771-.554.37-.384.555-.989.555-1.814h1.408V146.5h-1.792v-11.264h-3.755v-1.515h1.813Zm16.525 10.368v2.411h-2.474v-2.411h2.474Zm11.555 2.752c-1.095 0-2.048-.32-2.859-.96-.796-.64-1.415-1.55-1.856-2.73-.427-1.195-.64-2.596-.64-4.203 0-1.621.213-3.029.64-4.224.441-1.195 1.06-2.112 1.856-2.752.811-.64 1.764-.96 2.859-.96s2.041.32 2.837.96c.811.64 1.429 1.557 1.856 2.752.441 1.195.661 2.603.661 4.224 0 1.607-.22 3.008-.661 4.203-.427 1.18-1.045 2.09-1.856 2.73-.796.64-1.742.96-2.837.96Zm0-1.749c.711 0 1.322-.249 1.834-.747.527-.497.932-1.209 1.216-2.133.299-.939.448-2.027.448-3.264 0-1.252-.149-2.34-.448-3.264-.284-.939-.689-1.657-1.216-2.155a2.503 2.503 0 0 0-1.834-.768c-.711 0-1.33.256-1.856.768-.512.498-.918 1.216-1.216 2.155-.285.924-.427 2.012-.427 3.264 0 1.237.142 2.325.427 3.264.298.924.704 1.636 1.216 2.133a2.612 2.612 0 0 0 1.856.747ZM74.624 168.723l-.427-3.456.427.384c-.228 1.081-.69 1.92-1.387 2.517-.697.597-1.593.896-2.688.896-1.166 0-2.19-.32-3.072-.96-.867-.64-1.536-1.55-2.005-2.731-.455-1.194-.683-2.595-.683-4.202 0-1.607.228-3.008.683-4.203.47-1.209 1.138-2.133 2.005-2.773.882-.64 1.906-.96 3.072-.96.825 0 1.6.206 2.326.618.74.399 1.365.96 1.877 1.686.526.711.896 1.536 1.11 2.474l-1.878.128c-.242-.953-.676-1.713-1.301-2.282-.612-.583-1.323-.875-2.134-.875-.825 0-1.529.242-2.112.725-.583.484-1.024 1.188-1.322 2.112-.299.925-.448 2.041-.448 3.35 0 1.308.149 2.425.448 3.349.298.91.74 1.607 1.322 2.091.583.469 1.287.704 2.112.704.669 0 1.266-.192 1.792-.576.527-.399.953-.939 1.28-1.622.342-.682.534-1.443.576-2.282H70.55v-1.75h5.398v7.638h-1.323Zm4.109-15.147h1.792v14.293l-.917-.896h8.938v1.75h-9.813v-15.147Zm13.88 0 3.392 6.891 3.37-6.891h2.027l-4.501 8.96v6.187h-1.792v-6.187l-4.523-8.96h2.027Zm16.269 0c1.109 0 2.062.185 2.858.555.811.355 1.43.881 1.856 1.578.427.683.64 1.494.64 2.432 0 .982-.213 1.821-.64 2.518-.426.697-1.045 1.23-1.856 1.6-.796.369-1.749.554-2.858.554h-2.774v5.91h-1.792v-15.147h4.566Zm0 7.488c1.152 0 2.019-.242 2.602-.725.583-.498.875-1.231.875-2.198 0-.938-.292-1.642-.875-2.112-.583-.469-1.45-.704-2.602-.704h-2.774v5.739h2.774Zm7.799-7.488h1.792v7.36l-.896-.725h7.979l-.896.725v-7.36h1.792v15.147h-1.792v-7.467l.896.725h-7.979l.896-.725v7.467h-1.792v-15.147Zm14.157 10.197c.128.683.37 1.287.726 1.814.355.526.81.931 1.365 1.216.569.284 1.216.426 1.941.426.598 0 1.124-.085 1.579-.256.469-.185.832-.448 1.088-.789.27-.356.405-.782.405-1.28 0-.754-.334-1.38-1.002-1.877-.669-.512-1.721-.975-3.158-1.387-1.322-.37-2.403-.896-3.242-1.579-.839-.682-1.259-1.578-1.259-2.688 0-.825.206-1.55.619-2.176a4.09 4.09 0 0 1 1.685-1.45c.725-.342 1.536-.512 2.432-.512.981 0 1.87.206 2.667.618.81.413 1.457.989 1.941 1.728.484.726.775 1.543.875 2.454l-1.878.128a3.692 3.692 0 0 0-.64-1.664 3.212 3.212 0 0 0-1.28-1.11 3.728 3.728 0 0 0-1.728-.405c-.796 0-1.465.22-2.005.661-.54.441-.811 1.017-.811 1.728 0 .555.164 1.01.491 1.366.341.355.754.633 1.237.832.484.199 1.145.419 1.984.661.043 0 .107.021.192.064 1.437.427 2.589 1.01 3.456 1.749.868.726 1.302 1.622 1.302 2.688 0 .882-.242 1.65-.726 2.304a4.502 4.502 0 0 1-1.898 1.451 6.355 6.355 0 0 1-2.475.491c-1.024 0-1.963-.214-2.816-.64a5.421 5.421 0 0 1-2.048-1.792c-.526-.768-.825-1.65-.896-2.646l1.877-.128Zm17.549 2.539v2.411h-2.474v-2.411h2.474Zm0-7.552v2.411h-2.474v-2.411h2.474Zm27.824-1.813c-.228-.626-.598-1.11-1.11-1.451-.497-.341-1.102-.512-1.813-.512-1.223 0-2.183.569-2.88 1.707-.697 1.123-1.074 2.73-1.131 4.821l-.362-.085c.355-.967.91-1.707 1.664-2.219.753-.526 1.614-.789 2.581-.789.981 0 1.849.227 2.603.682a4.456 4.456 0 0 1 1.77 1.856c.427.797.64 1.707.64 2.731 0 1.081-.227 2.027-.682 2.837a4.727 4.727 0 0 1-1.899 1.878c-.796.441-1.707.661-2.731.661a5.348 5.348 0 0 1-2.005-.384 5.57 5.57 0 0 1-1.771-1.216c-.54-.569-.945-1.316-1.216-2.24-.256-.924-.384-1.984-.384-3.179 0-1.607.192-3.072.576-4.394.384-1.337 1.003-2.404 1.856-3.2.868-.811 1.991-1.216 3.371-1.216.754 0 1.451.142 2.091.426a4.294 4.294 0 0 1 1.664 1.216c.469.527.817 1.174 1.045 1.942l-1.877.128Zm-6.763 6.741c-.014.697.121 1.323.405 1.877.299.555.711.989 1.238 1.302.526.298 1.13.448 1.813.448.64 0 1.216-.15 1.728-.448a3.157 3.157 0 0 0 1.216-1.302c.299-.554.448-1.18.448-1.877 0-.683-.142-1.287-.427-1.813a2.99 2.99 0 0 0-1.152-1.259 3.205 3.205 0 0 0-1.685-.448c-.668 0-1.28.149-1.835.448a3.263 3.263 0 0 0-1.301 1.259c-.299.526-.448 1.13-.448 1.813Zm15.949-3.883a3.855 3.855 0 0 0 1.472-.234 2.611 2.611 0 0 0 1.152-.875c.299-.398.448-.903.448-1.515 0-.441-.121-.825-.363-1.152-.241-.341-.597-.597-1.066-.768-.455-.185-1.003-.277-1.643-.277-.782 0-1.436.185-1.963.555-.526.355-.839.839-.938 1.45l-1.878-.128a3.674 3.674 0 0 1 .79-1.856 4.72 4.72 0 0 1 1.706-1.301 5.508 5.508 0 0 1 2.283-.469c.967 0 1.82.17 2.56.512.754.327 1.337.789 1.749 1.386.427.598.64 1.28.64 2.048 0 .967-.291 1.75-.874 2.347s-1.451.996-2.603 1.195l.021-.363c.854.156 1.572.427 2.155.811.597.384 1.045.867 1.344 1.45.313.569.469 1.216.469 1.942 0 .867-.227 1.642-.682 2.325-.455.683-1.103 1.216-1.942 1.6-.825.384-1.77.576-2.837.576-.996 0-1.892-.178-2.688-.533-.782-.37-1.408-.875-1.877-1.515a4.046 4.046 0 0 1-.747-2.176l1.835-.128c.085.853.469 1.5 1.152 1.941.682.441 1.457.662 2.325.662.725 0 1.358-.114 1.899-.342.554-.241.974-.583 1.258-1.024.299-.441.448-.953.448-1.536 0-.597-.149-1.109-.448-1.536-.284-.441-.704-.775-1.258-1.002-.541-.242-1.174-.356-1.899-.342l-1.152.022v-1.771l1.152.021Zm7.906-1.706c.143-.939.448-1.771.918-2.496a4.913 4.913 0 0 1 1.856-1.728c.782-.427 1.664-.64 2.645-.64.91 0 1.728.192 2.453.576a4.237 4.237 0 0 1 1.707 1.536 3.93 3.93 0 0 1 .64 2.197c0 1.01-.348 1.92-1.045 2.731-.683.796-1.679 1.585-2.987 2.368-.939.54-1.877 1.23-2.816 2.069-.924.839-1.401 1.593-1.429 2.261h8.384v1.75h-10.603c0-1.252.242-2.326.725-3.222.484-.91 1.067-1.649 1.75-2.218.682-.583 1.578-1.223 2.688-1.92a6.84 6.84 0 0 1 .661-.406c.213-.156.434-.313.661-.469.669-.484 1.188-.967 1.558-1.451.384-.497.576-.995.576-1.493a2.33 2.33 0 0 0-.384-1.323 2.43 2.43 0 0 0-1.024-.896c-.441-.227-.946-.341-1.515-.341-.939 0-1.714.284-2.325.853-.612.555-1.017 1.351-1.216 2.39l-1.878-.128ZM70.379 191.2c-1.223 0-2.311-.334-3.264-1.002-.953-.669-1.7-1.6-2.24-2.795-.527-1.195-.79-2.553-.79-4.075 0-1.521.263-2.88.79-4.074.54-1.195 1.287-2.127 2.24-2.795.953-.668 2.04-1.003 3.264-1.003 1.223 0 2.31.335 3.264 1.003.953.668 1.7 1.6 2.24 2.795.54 1.194.81 2.553.81 4.074 0 1.522-.27 2.88-.81 4.075-.54 1.195-1.287 2.126-2.24 2.795-.953.668-2.041 1.002-3.264 1.002Zm0-1.429c.981 0 1.841-.263 2.581-.789.74-.527 1.308-1.273 1.707-2.24.398-.967.597-2.105.597-3.414 0-1.308-.2-2.446-.597-3.413-.399-.967-.967-1.714-1.707-2.24-.74-.526-1.6-.789-2.581-.789-.982 0-1.842.263-2.582.789-.725.526-1.287 1.28-1.685 2.261-.398.967-.597 2.098-.597 3.392 0 1.295.199 2.432.597 3.414.398.967.96 1.713 1.685 2.24.74.526 1.6.789 2.582.789Zm2.133-7.936c-.085-.597-.313-1.06-.683-1.387a1.81 1.81 0 0 0-1.301-.512c-.768 0-1.351.299-1.75.896-.383.583-.575 1.423-.575 2.518 0 1.081.192 1.92.576 2.517.398.583.981.875 1.749.875.526 0 .974-.178 1.344-.534.37-.369.604-.881.704-1.536l1.43.107c-.129 1.024-.52 1.849-1.174 2.475-.654.611-1.422.917-2.304.917-1.138 0-2.048-.434-2.73-1.301-.683-.882-1.025-2.055-1.025-3.52 0-.967.157-1.814.47-2.539.313-.74.746-1.308 1.301-1.707.569-.398 1.23-.597 1.984-.597.555 0 1.08.135 1.579.405.497.256.91.633 1.237 1.131.327.484.526 1.045.597 1.685l-1.429.107Zm5.666-1.515c.143-.938.448-1.77.918-2.496a4.931 4.931 0 0 1 1.856-1.728c.782-.426 1.664-.64 2.645-.64.91 0 1.728.192 2.453.576.726.37 1.295.882 1.707 1.536.427.655.64 1.387.64 2.198 0 1.009-.348 1.92-1.045 2.73-.683.797-1.679 1.586-2.987 2.368-.939.541-1.877 1.231-2.816 2.07-.924.839-1.4 1.593-1.43 2.261h8.385v1.749H77.9c0-1.251.242-2.325.725-3.221.484-.91 1.067-1.65 1.75-2.219.682-.583 1.578-1.223 2.688-1.92.227-.156.448-.291.661-.405.213-.156.434-.313.661-.469.669-.484 1.188-.967 1.558-1.451.384-.498.576-.996.576-1.493a2.33 2.33 0 0 0-.384-1.323 2.423 2.423 0 0 0-1.024-.896c-.441-.228-.946-.341-1.515-.341-.939 0-1.714.284-2.325.853-.612.555-1.017 1.351-1.216 2.389l-1.878-.128Zm17.805 10.966c-1.095 0-2.048-.32-2.858-.96-.797-.64-1.415-1.551-1.856-2.731-.427-1.195-.64-2.596-.64-4.203 0-1.621.213-3.029.64-4.224.44-1.194 1.06-2.112 1.856-2.752.81-.64 1.763-.96 2.858-.96 1.095 0 2.041.32 2.838.96.81.64 1.429 1.558 1.856 2.752.441 1.195.661 2.603.661 4.224 0 1.607-.22 3.008-.661 4.203-.427 1.18-1.046 2.091-1.856 2.731-.797.64-1.743.96-2.838.96Zm0-1.75c.711 0 1.323-.249 1.835-.746.526-.498.932-1.209 1.216-2.134.299-.938.448-2.026.448-3.264 0-1.251-.15-2.339-.448-3.264-.284-.938-.69-1.657-1.216-2.154a2.504 2.504 0 0 0-1.835-.768c-.71 0-1.33.256-1.856.768-.512.497-.917 1.216-1.216 2.154-.284.925-.426 2.013-.426 3.264 0 1.238.142 2.326.426 3.264.299.925.704 1.636 1.216 2.134a2.616 2.616 0 0 0 1.856.746Zm7.779-9.216c.142-.938.448-1.77.917-2.496a4.929 4.929 0 0 1 1.856-1.728c.782-.426 1.664-.64 2.645-.64.911 0 1.728.192 2.454.576.725.37 1.294.882 1.706 1.536.427.655.64 1.387.64 2.198 0 1.009-.348 1.92-1.045 2.73-.683.797-1.678 1.586-2.987 2.368-.938.541-1.877 1.231-2.816 2.07-.924.839-1.401 1.593-1.429 2.261h8.384v1.749h-10.603c0-1.251.242-2.325.726-3.221.483-.91 1.066-1.65 1.749-2.219.683-.583 1.579-1.223 2.688-1.92.228-.156.448-.291.661-.405.214-.156.434-.313.662-.469.668-.484 1.187-.967 1.557-1.451.384-.498.576-.996.576-1.493a2.33 2.33 0 0 0-.384-1.323 2.424 2.424 0 0 0-1.024-.896c-.441-.228-.946-.341-1.515-.341-.938 0-1.713.284-2.325.853-.612.555-1.017 1.351-1.216 2.389l-1.877-.128Zm17.677 1.707a3.855 3.855 0 0 0 1.472-.235 2.61 2.61 0 0 0 1.152-.874c.298-.399.448-.903.448-1.515 0-.441-.121-.825-.363-1.152-.242-.341-.597-.597-1.067-.768-.455-.185-1.002-.277-1.642-.277-.783 0-1.437.185-1.963.554-.526.356-.839.839-.939 1.451l-1.877-.128a3.66 3.66 0 0 1 .789-1.856 4.705 4.705 0 0 1 1.707-1.301 5.509 5.509 0 0 1 2.283-.47c.967 0 1.82.171 2.56.512.753.327 1.337.79 1.749 1.387.427.597.64 1.28.64 2.048 0 .967-.292 1.749-.875 2.347-.583.597-1.45.995-2.602 1.194l.021-.362c.853.156 1.572.426 2.155.81.597.384 1.045.868 1.344 1.451.313.569.469 1.216.469 1.941 0 .868-.228 1.643-.683 2.326-.455.682-1.102 1.216-1.941 1.6-.825.384-1.771.576-2.837.576-.996 0-1.892-.178-2.688-.534-.783-.369-1.408-.874-1.878-1.514a4.04 4.04 0 0 1-.746-2.176l1.834-.128c.086.853.47 1.5 1.152 1.941.683.441 1.458.661 2.326.661.725 0 1.358-.113 1.898-.341.555-.242.975-.583 1.259-1.024.299-.441.448-.953.448-1.536 0-.597-.149-1.109-.448-1.536-.284-.441-.704-.775-1.259-1.003-.54-.241-1.173-.355-1.898-.341l-1.152.021v-1.77l1.152.021ZM66.453 198.02l4.203 14.059h-.512l4.203-14.059h1.92l-4.694 15.147h-2.346l-4.694-15.147h1.92Zm21.773 0v1.75h-7.701v4.949h7.445v1.707h-7.445v4.992h7.872v1.749h-9.664V198.02h9.493Zm7.693 0c1.607 0 2.866.413 3.776 1.238.925.81 1.387 1.92 1.387 3.328 0 .668-.156 1.28-.469 1.834a3.583 3.583 0 0 1-1.195 1.323c-.484.327-.988.505-1.515.533l-.661-.256c1.209 0 2.076.207 2.603.619.54.398.86 1.088.96 2.069l.426 4.459h-1.813l-.384-4.288c-.057-.668-.341-1.138-.853-1.408-.498-.284-1.309-.427-2.432-.427h-2.795v6.123h-1.792V198.02h4.757Zm0 7.275c1.053 0 1.863-.235 2.432-.704.57-.469.854-1.152.854-2.048 0-.882-.285-1.564-.854-2.048s-1.38-.725-2.432-.725h-2.965v5.525h2.965Zm18.531 3.115c-.299 1.593-.918 2.844-1.856 3.754-.939.896-2.112 1.344-3.52 1.344-1.223 0-2.283-.32-3.179-.96-.882-.64-1.55-1.55-2.005-2.73-.455-1.181-.683-2.582-.683-4.203 0-1.636.228-3.044.683-4.224.455-1.195 1.123-2.112 2.005-2.752.896-.64 1.956-.96 3.179-.96 1.322 0 2.439.42 3.349 1.259.91.839 1.543 2.005 1.899 3.498l-1.92.128c-.271-.995-.69-1.763-1.259-2.304-.569-.554-1.259-.832-2.069-.832-.854 0-1.579.242-2.176.726-.583.483-1.031 1.187-1.344 2.112-.313.924-.47 2.041-.47 3.349 0 1.308.157 2.425.47 3.349.313.911.761 1.607 1.344 2.091.597.469 1.322.704 2.176.704.881 0 1.621-.299 2.218-.896.612-.612 1.031-1.472 1.259-2.581l1.899.128Zm12.151-10.39v1.75H118.9v4.949h7.445v1.707H118.9v4.992h7.872v1.749h-9.664V198.02h9.493Zm3.299 0h1.792v14.294l-.918-.896h8.939v1.749H129.9V198.02Z" fill="#171717"/><path d="m145.406 400.243-.106.559.567.045 46.851 3.727.441.035.098-.43c6.866-30.107 32.209-51.246 67.117-51.246 20.938 0 38.096 5.829 50.086 17.687 11.92 11.789 18.802 29.606 19.143 53.788l-83.167 15.891-.004.001c-30.872 6.121-57.323 12.923-76.052 25.499-9.377 6.296-16.828 14.043-21.931 23.881-5.103 9.836-7.844 21.732-7.844 36.305 0 25.194 11.264 45.306 29.552 59.105 18.276 13.791 43.547 21.266 71.583 21.266 44.573 0 76.874-23.156 88.722-49.376 2.62 12.696 8.817 23.276 18.307 30.766 9.891 7.804 23.319 12.221 39.914 12.221h14.886v-39.886H391.345c-6.062 0-10.288-1.32-13.011-4.106-2.726-2.788-4.047-7.152-4.047-13.485V429.088c0-39.495-11.344-69.188-31.297-89.007-19.951-19.818-48.445-29.697-82.616-29.697-58.786 0-104.802 36.355-114.968 89.859Zm102.19 166.227h-.006c-20.694.265-35.744-4.247-45.608-11.612-9.849-7.354-14.569-17.582-14.569-28.873 0-9.905 2.178-17.489 6.056-23.421 3.879-5.932 9.486-10.254 16.415-13.586 11.995-5.769 27.846-8.533 45.345-11.584 2.771-.483 5.584-.974 8.429-1.484h.001l67.014-11.609v14.3c0 27.569-9.143 49.529-24.076 64.594-14.935 15.067-35.697 23.275-59.001 23.275Z" stroke="#171717" stroke-width="1.021"/><path fill="#171717" d="M143.314 396.167h6.677v6.677h-6.677zM189.185 401.106h6.677v6.677h-6.677zM258.036 349.105h6.677v6.677h-6.677zM258.036 307.556h6.677v6.677h-6.677zM327.193 421.211h6.677v6.677h-6.677zM328.17 458.37h6.677v6.677h-6.677zM260.638 472.186h6.677v6.677h-6.677zM244.097 437.436h6.677v6.677h-6.677z"/><path fill="#171717" stroke="#171717" stroke-width=".797" d="M138.176 522.049h5.879v5.879h-5.879z"/><path fill="#171717" d="M183.425 521.65h6.677v6.677h-6.677zM244.097 563.471h6.677v6.677h-6.677zM239.702 602.506h6.677v6.677h-6.677zM370.725 426.42h6.677v6.677h-6.677zM399.721 556.793h6.677v6.677h-6.677zM399.721 596.312h6.677v6.677h-6.677zM385.054 596.312h6.677v6.677h-6.677zM388.392 556.793h6.677v6.677h-6.677zM327.193 553.455h6.677v6.677h-6.677zM328.17 473.77h6.677v6.677h-6.677zM370.394 538.801h6.677v6.677h-6.677zM200.634 310.895a2.126 2.126 0 1 0 4.252 0 2.126 2.126 0 0 0-4.252 0Zm2.126.398h58.587v-.797H202.76v.797ZM223.037 352.443a2.126 2.126 0 1 0 4.253.001 2.126 2.126 0 0 0-4.253-.001Zm2.126.399h36.189v-.797h-36.189v.797ZM183.344 452.876a2.126 2.126 0 1 0 4.179-.789 2.126 2.126 0 0 0-4.179.789Zm2.164-.003 62.001-11.708-.148-.783-62.001 11.708.148.783ZM219.863 483.44a2.126 2.126 0 1 0 4.186-.752 2.126 2.126 0 0 0-4.186.752Zm2.164.017 42.018-7.54-.141-.785-42.018 7.54.141.785ZM156.331 344.543a2.126 2.126 0 1 0-.74 4.19 2.126 2.126 0 0 0 .74-4.19Zm-.762 2.025-9.309 52.867.786.139 9.308-52.868-.785-.138ZM200.211 370.997a2.125 2.125 0 1 0-.937 4.148 2.126 2.126 0 1 0 .937-4.148Zm-.857 1.986-7.528 33.3.778.176 7.528-33.3-.778-.176ZM317.835 310.895a2.126 2.126 0 1 0 4.252 0 2.126 2.126 0 0 0-4.252 0Zm-56.461.398h58.587v-.797h-58.587v.797ZM295.432 352.443a2.126 2.126 0 1 0 4.253.001 2.126 2.126 0 0 0-4.253-.001Zm-34.062.399h36.188v-.797H261.37v.797ZM330.532 378.405a2.126 2.126 0 1 0 0-4.252 2.126 2.126 0 0 0 0 4.252Zm.399 46.145v-48.271h-.798v48.271h.798Z"/><path d="M382.199 560.131a2.126 2.126 0 1 0-4.253-.001 2.126 2.126 0 0 0 4.253.001Zm9.532-.399h-11.658v.798h11.658v-.798ZM354.568 599.651a2.126 2.126 0 1 0-4.252 0 2.126 2.126 0 0 0 4.252 0Zm33.824-.398h-35.95v.797h35.95v-.797ZM213.612 566.809a2.127 2.127 0 1 0-4.253 0 2.127 2.127 0 0 0 4.253 0Zm33.824-.399h-35.951v.797h35.951v-.797ZM189.122 605.845a2.126 2.126 0 1 0-4.253-.001 2.126 2.126 0 0 0 4.253.001Zm48.783-.399h-50.909v.797h50.909v-.797Z" fill="#171717"/><path d="M245.309 566.809a2.127 2.127 0 1 1 4.253 0 2.127 2.127 0 0 1-4.253 0Zm35.951 0a2.126 2.126 0 1 1 4.253-.001 2.126 2.126 0 0 1-4.253.001Zm-33.824-.399h35.95v.797h-35.95v-.797ZM286.687 605.845a2.126 2.126 0 1 1 4.253-.001 2.126 2.126 0 0 1-4.253.001Zm-48.782-.399h50.908v.797h-50.908v-.797ZM374.064 353.809a2.126 2.126 0 1 0 .001-4.253 2.126 2.126 0 0 0-.001 4.253Zm.399 75.95v-78.076h-.797v78.076h.797ZM373.733 549.028a2.126 2.126 0 1 0-.001 4.253 2.126 2.126 0 0 0 .001-4.253Zm-.399-9.227v11.353h.797v-11.353h-.797ZM141.116 470.72a2.126 2.126 0 1 0 0-4.252 2.126 2.126 0 0 0 0 4.252Zm.399 54.268v-56.394h-.798v56.394h.798Z" fill="#171717"/><path d="M141.116 574.13a2.126 2.126 0 1 0 0 4.253 2.126 2.126 0 0 0 0-4.253Zm-.399-49.142v51.269h.798v-51.269h-.798ZM331.508 531.78a2.126 2.126 0 1 0 0 4.252 2.126 2.126 0 0 0 0-4.252Zm-.398-54.672v56.798h.797v-56.798h-.797ZM335.097 579.353a2.127 2.127 0 1 0 .845 4.166 2.127 2.127 0 0 0-.845-4.166Zm-4.956-22.481 4.987 24.644.782-.158-4.987-24.644-.782.158Z" fill="#171717"/><path d="M320.728 579.485a2.125 2.125 0 1 0-1.687 3.904 2.127 2.127 0 0 0 1.687-3.904Zm9.438-22.85-10.647 24.644.732.316 10.647-24.644-.732-.316ZM186.763 488.068a2.126 2.126 0 1 0 .001-4.253 2.126 2.126 0 0 0-.001 4.253Zm.399 39.483v-41.609h-.797v41.609h.797ZM186.763 546.321a2.126 2.126 0 1 0 0 4.253 2.126 2.126 0 0 0 0-4.253Zm-.398-18.77v20.897h.797v-20.897h-.797Z" fill="#171717"/></svg>