<svg width="544" height="704" fill="none" xmlns="http://www.w3.org/2000/svg"><path fill="#F2F2F2" d="M0 0h544v704H0z"/><path d="M401.977 42.556h-.441l-.057-.84c-.213.562-.839.953-1.515.953-1.45 0-2.282-1.159-2.282-2.63 0-1.48.825-2.646 2.282-2.646 1.06 0 1.764.661 1.992 1.593l-.626.043c-.171-.626-.64-1.053-1.366-1.053-1.152 0-1.656.953-1.656 2.062 0 1.103.512 2.048 1.656 2.048.882 0 1.38-.647 1.43-1.493h-1.43v-.583h2.013v2.546Zm.718-1.885c0-1.194.676-1.97 1.721-1.97.839 0 1.572.562 1.636 1.892l.007.263h-2.745c.057.775.448 1.23 1.102 1.23.413 0 .782-.241.953-.64l.626.043a1.624 1.624 0 0 1-1.579 1.152c-1.045 0-1.721-.775-1.721-1.97Zm.633-.334h2.091c-.107-.796-.533-1.08-1.003-1.08-.604 0-.995.397-1.088 1.08Zm3.638-1.55h.583v3.769h-.583v-3.77Zm-.015-.59v-.676h.612v.676h-.612Zm3.947 1.749c-.086-.434-.512-.69-.939-.69-.427 0-.768.22-.768.583.007.37.484.526.91.619.861.163 1.479.405 1.479 1.138 0 .725-.746 1.045-1.465 1.045-.888 0-1.571-.49-1.628-1.266l.612-.042c.071.455.44.753 1.016.753.384 0 .854-.128.854-.519 0-.455-.541-.505-.974-.611-.697-.164-1.408-.363-1.408-1.081-.008-.718.576-1.174 1.436-1.174.754 0 1.365.477 1.486 1.202l-.611.043Zm1.785-2.013h.583v.854h1.003v.519h-1.003v2.254c0 .32.156.477.455.477h.54v.519h-.54c-.668 0-1.038-.356-1.038-.996v-2.254h-.555v-.52h.555v-.853Zm3.971 2.738c0-1.194.675-1.97 1.721-1.97.839 0 1.571.562 1.635 1.892l.007.263h-2.745c.057.775.448 1.23 1.103 1.23.412 0 .782-.241.952-.64l.626.043a1.622 1.622 0 0 1-1.578 1.152c-1.046 0-1.721-.775-1.721-1.97Zm.633-.334h2.09c-.106-.796-.533-1.08-1.002-1.08-.605 0-.996.397-1.088 1.08Zm3.637-1.55h.533l.022.64c.17-.462.561-.726 1.088-.726.54 0 .931.292 1.095.797.163-.512.561-.797 1.152-.797.753 0 1.194.527 1.194 1.43v2.425h-.583V40.3c0-.69-.27-1.08-.732-1.08-.59 0-.932.398-.932 1.088v2.247h-.583V40.3c0-.675-.277-1.08-.732-1.08-.583 0-.939.412-.939 1.08v2.255h-.583v-3.77Zm6.25-1.28h.583v1.792c.213-.384.612-.598 1.166-.598 1.088 0 1.593.925 1.593 1.97 0 1.046-.505 1.97-1.593 1.97-.583 0-.988-.242-1.202-.64l-.021.555h-.526v-5.05Zm.533 3.164c0 .718.32 1.415 1.095 1.415.79 0 1.103-.682 1.103-1.415 0-.754-.313-1.436-1.103-1.436-.775 0-1.095.69-1.095 1.436Zm5.195 1.97c-1.045 0-1.721-.775-1.721-1.97 0-1.194.676-1.97 1.721-1.97 1.046 0 1.721.776 1.721 1.97 0 1.195-.675 1.97-1.721 1.97Zm-1.109-1.97c0 .882.405 1.415 1.109 1.415.697 0 1.11-.533 1.11-1.415s-.413-1.415-1.11-1.415c-.704 0-1.109.533-1.109 1.415Zm6.842-3.164v5.049h-.526l-.022-.555c-.213.398-.618.64-1.202.64-1.088 0-1.592-.924-1.592-1.97 0-1.045.504-1.97 1.592-1.97.555 0 .953.214 1.167.598v-1.792h.583Zm-2.731 3.164c0 .733.313 1.415 1.102 1.415.775 0 1.095-.697 1.095-1.415 0-.746-.32-1.436-1.095-1.436-.789 0-1.102.682-1.102 1.436Zm3.937-1.884h.583v3.769h-.583v-3.77Zm-.015-.59v-.676h.612v.676h-.612Zm1.536 2.474c0-1.194.676-1.97 1.721-1.97.839 0 1.571.562 1.635 1.892l.008.263h-2.745c.057.775.448 1.23 1.102 1.23.412 0 .782-.241.953-.64l.626.043a1.625 1.625 0 0 1-1.579 1.152c-1.045 0-1.721-.775-1.721-1.97Zm.633-.334h2.091c-.107-.796-.534-1.08-1.003-1.08-.605 0-.996.397-1.088 1.08Zm5.812-.391c-.085-.434-.512-.69-.938-.69-.427 0-.768.22-.768.583.007.37.483.526.91.619.86.163 1.479.405 1.479 1.138 0 .725-.747 1.045-1.465 1.045-.889 0-1.571-.49-1.628-1.266l.611-.042c.071.455.441.753 1.017.753.384 0 .854-.128.854-.519 0-.455-.541-.505-.975-.611-.697-.164-1.408-.363-1.408-1.081-.007-.718.576-1.174 1.437-1.174.754 0 1.365.477 1.486 1.202l-.612.043Zm4.852 2.695c-1.045 0-1.721-.775-1.721-1.97 0-1.194.676-1.97 1.721-1.97 1.046 0 1.721.776 1.721 1.97 0 1.195-.675 1.97-1.721 1.97Zm-1.109-1.97c0 .882.405 1.415 1.109 1.415.697 0 1.11-.533 1.11-1.415s-.413-1.415-1.11-1.415c-.704 0-1.109.533-1.109 1.415Zm6.659 1.885h-.555v-.64c-.192.49-.64.725-1.138.725-.839 0-1.251-.633-1.251-1.43v-2.424h.583v2.247c0 .704.234 1.088.789 1.088.597 0 .988-.384.988-1.088v-2.247h.584v3.769Zm1.208-3.77h.512l.021.698c.128-.477.413-.697.903-.697h.363v.512h-.363c-.576 0-.853.355-.853 1.01v2.247h-.583v-3.77Zm7.586-1.28v5.05h-.526l-.022-.555c-.213.398-.618.64-1.201.64-1.088 0-1.593-.924-1.593-1.97 0-1.045.505-1.97 1.593-1.97.554 0 .952.214 1.166.598v-1.792h.583Zm-2.731 3.165c0 .733.313 1.415 1.102 1.415.776 0 1.096-.697 1.096-1.415 0-.746-.32-1.436-1.096-1.436-.789 0-1.102.682-1.102 1.436Zm3.666 0c0-1.194.676-1.97 1.721-1.97.839 0 1.572.562 1.636 1.892l.007.263h-2.745c.057.775.448 1.23 1.102 1.23.413 0 .783-.241.953-.64l.626.043a1.623 1.623 0 0 1-1.579 1.152c-1.045 0-1.721-.775-1.721-1.97Zm.633-.334h2.091c-.107-.796-.533-1.08-1.003-1.08-.604 0-.995.397-1.088 1.08Zm5.813-.391c-.086-.434-.512-.69-.939-.69-.427 0-.768.22-.768.583.007.37.484.526.91.619.861.163 1.479.405 1.479 1.138 0 .725-.746 1.045-1.464 1.045-.889 0-1.572-.49-1.629-1.266l.612-.042c.071.455.441.753 1.017.753.384 0 .853-.128.853-.519 0-.455-.541-.505-.974-.611-.697-.164-1.408-.363-1.408-1.081-.007-.718.576-1.174 1.436-1.174.754 0 1.365.477 1.486 1.202l-.611.043Zm1.589-1.16h.583v3.77h-.583v-3.77Zm-.015-.59v-.675h.612v.676h-.612Zm3.228 4.16c-1.031 0-1.692-.767-1.692-1.827s.676-1.828 1.692-1.828c.505 0 .918.285 1.081.69v-.604h.562v3.399c0 .988-.675 1.522-1.657 1.522-.803 0-1.408-.441-1.571-1.095l.611-.043c.15.363.477.583.96.583.669 0 1.074-.299 1.074-.84v-.625a1.19 1.19 0 0 1-1.06.669Zm-1.08-1.827c0 .74.405 1.273 1.08 1.273.648 0 1.06-.54 1.067-1.273.014-.732-.398-1.273-1.067-1.273-.675 0-1.08.533-1.08 1.273Zm3.929-1.742h.533l.022.647c.192-.505.64-.733 1.159-.733.86 0 1.273.633 1.273 1.43v2.425h-.583V40.3c0-.696-.235-1.08-.811-1.08-.612 0-1.01.384-1.01 1.08v2.255h-.583v-3.77Zm-84.097 13.835v-4.835h.526l.021.576c.207-.427.619-.662 1.167-.662 1.123 0 1.628.925 1.628 1.97 0 1.046-.505 1.97-1.628 1.97-.527 0-.925-.22-1.131-.626v1.607h-.583Zm.519-2.95c0 .717.327 1.407 1.095 1.407.782 0 1.102-.675 1.102-1.408 0-.732-.32-1.415-1.102-1.415-.768 0-1.095.697-1.095 1.415Zm3.724-1.885h.512l.021.697c.128-.477.413-.697.903-.697h.363v.512h-.363c-.576 0-.853.355-.853 1.01v2.247h-.583v-3.77Zm2.639 0h.583v3.769h-.583v-3.77Zm-.014-.59v-.676h.611v.676h-.611Zm1.805.59h.534l.021.647c.192-.505.64-.733 1.159-.733.861 0 1.273.633 1.273 1.43v2.425h-.583V49.3c0-.696-.235-1.08-.811-1.08-.611 0-1.009.384-1.009 1.08v2.255h-.584v-3.77Zm6.376 1.258c-.085-.497-.49-.789-.953-.789-.704 0-1.109.533-1.109 1.415s.405 1.415 1.109 1.415c.484 0 .896-.32.982-.86l.618.035c-.121.854-.796 1.38-1.6 1.38-1.045 0-1.721-.775-1.721-1.97 0-1.194.676-1.97 1.721-1.97.775 0 1.465.498 1.565 1.302l-.612.042Zm1.479-1.258h.583v3.769h-.583v-3.77Zm-.015-.59v-.676h.612v.676h-.612Zm1.806 5.425v-4.835h.526l.022.576c.206-.427.618-.662 1.166-.662 1.124 0 1.628.925 1.628 1.97 0 1.046-.504 1.97-1.628 1.97-.526 0-.924-.22-1.131-.626v1.607h-.583Zm.519-2.95c0 .717.327 1.407 1.095 1.407.783 0 1.103-.675 1.103-1.408 0-.732-.32-1.415-1.103-1.415-.768 0-1.095.697-1.095 1.415Zm3.773-3.165h.583v4.295c0 .163.079.235.242.235h.32v.519h-.405c-.448 0-.74-.292-.74-.726v-4.323Zm1.695 3.164c0-1.194.676-1.97 1.721-1.97.839 0 1.571.562 1.635 1.892l.008.263h-2.745c.057.775.448 1.23 1.102 1.23.412 0 .782-.241.953-.64l.626.043a1.625 1.625 0 0 1-1.579 1.152c-1.045 0-1.721-.775-1.721-1.97Zm.633-.334h2.091c-.107-.796-.534-1.08-1.003-1.08-.605 0-.996.397-1.088 1.08Zm5.812-.391c-.085-.434-.512-.69-.938-.69-.427 0-.768.22-.768.583.007.37.483.526.91.619.86.163 1.479.405 1.479 1.138 0 .725-.747 1.045-1.465 1.045-.889 0-1.571-.49-1.628-1.266l.611-.042c.071.455.441.753 1.017.753.384 0 .853-.128.853-.519 0-.455-.54-.505-.974-.611-.697-.164-1.408-.363-1.408-1.081-.007-.718.576-1.174 1.437-1.174.753 0 1.365.477 1.486 1.202l-.612.043Zm4.852 2.695c-1.045 0-1.721-.775-1.721-1.97 0-1.194.676-1.97 1.721-1.97 1.046 0 1.721.776 1.721 1.97 0 1.195-.675 1.97-1.721 1.97Zm-1.109-1.97c0 .882.405 1.415 1.109 1.415.697 0 1.11-.533 1.11-1.415s-.413-1.415-1.11-1.415c-.704 0-1.109.533-1.109 1.415Zm4.001-2.14c0-.619.32-1.024 1.009-1.024h.569v.512h-.576c-.249 0-.419.199-.419.512v.256h.953v.519h-.953v3.25h-.583v-3.25h-.512v-.52h.512v-.255Zm6.402 1.415c-.085-.434-.512-.69-.938-.69-.427 0-.768.22-.768.583.007.37.483.526.91.619.86.163 1.479.405 1.479 1.138 0 .725-.747 1.045-1.465 1.045-.889 0-1.572-.49-1.628-1.266l.611-.042c.071.455.441.753 1.017.753.384 0 .853-.128.853-.519 0-.455-.54-.505-.974-.611-.697-.164-1.408-.363-1.408-1.081-.007-.718.576-1.174 1.437-1.174.753 0 1.365.477 1.486 1.202l-.612.043Zm1.589-1.16h.583v3.77h-.583v-3.77Zm-.014-.59v-.675h.611v.676h-.611Zm1.806.59h.533l.021.64c.171-.461.562-.725 1.088-.725.541 0 .932.292 1.095.797.164-.512.562-.797 1.152-.797.754 0 1.195.527 1.195 1.43v2.425h-.583V49.3c0-.69-.27-1.08-.733-1.08-.59 0-.931.398-.931 1.088v2.247h-.583V49.3c0-.675-.278-1.08-.733-1.08-.583 0-.938.412-.938 1.08v2.255h-.583v-3.77Zm6.25 4.836v-4.835h.526l.021.576c.206-.427.619-.662 1.166-.662 1.124 0 1.629.925 1.629 1.97 0 1.046-.505 1.97-1.629 1.97-.526 0-.924-.22-1.13-.626v1.607h-.583Zm.519-2.95c0 .717.327 1.407 1.095 1.407.782 0 1.102-.675 1.102-1.408 0-.732-.32-1.415-1.102-1.415-.768 0-1.095.697-1.095 1.415Zm3.773-3.165h.583v4.295c0 .163.078.235.241.235h.32v.519h-.405c-.448 0-.739-.292-.739-.726v-4.323Zm1.978 1.28h.584v3.769h-.584v-3.77Zm-.014-.59v-.676h.612v.676h-.612Zm4.21 1.848c-.086-.497-.491-.789-.953-.789-.704 0-1.11.533-1.11 1.415s.406 1.415 1.11 1.415c.483 0 .896-.32.981-.86l.619.035c-.121.854-.797 1.38-1.6 1.38-1.046 0-1.721-.775-1.721-1.97 0-1.194.675-1.97 1.721-1.97.775 0 1.465.498 1.564 1.302l-.611.042Zm1.478-1.258h.583v3.769h-.583v-3.77Zm-.014-.59v-.676h.611v.676h-.611Zm1.905-.264h.583v.854h1.003v.519h-1.003v2.254c0 .32.156.477.455.477h.54v.519h-.54c-.668 0-1.038-.356-1.038-.996v-2.254h-.555v-.52h.555v-.853Zm2.015.854h.626l1.145 3.143 1.102-3.143h.619l-1.529 4.245c-.142.405-.413.59-.839.59h-.448v-.519h.391c.192 0 .306-.07.377-.27l.135-.348h-.199l-1.38-3.698Zm4.759 3.769-.399 1.052h-.341l.27-1.052h-.305v-.761h.753v.76h.022Zm-75.137 5.23h.533l.021.64c.171-.461.562-.725 1.088-.725.541 0 .932.292 1.096.797.163-.512.561-.797 1.152-.797.753 0 1.194.527 1.194 1.43v2.425h-.583V58.3c0-.69-.27-1.08-.732-1.08-.591 0-.932.398-.932 1.088v2.247h-.583V58.3c0-.675-.277-1.08-.732-1.08-.584 0-.939.412-.939 1.08v2.255h-.583v-3.77Zm6.25 0h.583v3.77h-.583v-3.77Zm-.014-.59v-.675h.611v.676h-.611Zm1.805.59h.534l.021.648c.192-.505.64-.733 1.159-.733.861 0 1.273.633 1.273 1.43v2.425h-.583V58.3c0-.696-.235-1.08-.811-1.08-.611 0-1.009.384-1.009 1.08v2.255h-.584v-3.77Zm4.153 0h.583v3.77h-.583v-3.77Zm-.014-.59v-.675h.612v.676h-.612Zm1.806.59h.533l.022.64c.17-.461.561-.725 1.088-.725.54 0 .931.292 1.095.797.163-.512.561-.797 1.152-.797.753 0 1.194.527 1.194 1.43v2.425h-.583V58.3c0-.69-.27-1.08-.732-1.08-.59 0-.932.398-.932 1.088v2.247h-.583V58.3c0-.675-.277-1.08-.732-1.08-.583 0-.939.412-.939 1.08v2.255h-.583v-3.77Zm6.044 1.11c.149-.732.732-1.195 1.536-1.195.974 0 1.514.57 1.514 1.58v1.514c0 .17.071.242.235.242h.149v.519h-.249c-.384 0-.718-.128-.711-.59-.163.355-.59.675-1.187.675-.747 0-1.351-.398-1.351-1.067 0-.775.59-.974 1.415-1.137l1.116-.214c-.007-.654-.313-.967-.931-.967-.484 0-.804.249-.918.69l-.618-.05Zm.547 1.678c0 .306.263.555.818.548.626 0 1.116-.441 1.116-1.316v-.064l-.903.157c-.561.1-1.031.142-1.031.675Zm3.756-4.067h.584v4.295c0 .163.078.235.241.235h.32v.519h-.405c-.448 0-.74-.292-.74-.726v-4.323Zm1.979 1.28h.583v3.769h-.583v-3.77Zm-.014-.59v-.676h.612v.676h-.612Zm3.946 1.749c-.085-.434-.512-.69-.938-.69-.427 0-.768.22-.768.583.007.37.483.526.91.619.86.163 1.479.405 1.479 1.138 0 .725-.747 1.045-1.465 1.045-.889 0-1.571-.49-1.628-1.266l.611-.042c.071.455.441.753 1.017.753.384 0 .854-.128.854-.519 0-.455-.541-.505-.975-.611-.697-.164-1.408-.363-1.408-1.081-.007-.718.576-1.174 1.437-1.174.754 0 1.365.477 1.486 1.202l-.612.043Zm1.589-1.16h.533l.022.64c.17-.461.562-.725 1.088-.725.54 0 .931.292 1.095.797.163-.512.562-.797 1.152-.797.754 0 1.195.527 1.195 1.43v2.425h-.584V58.3c0-.69-.27-1.08-.732-1.08-.59 0-.932.398-.932 1.088v2.247h-.583V58.3c0-.675-.277-1.08-.732-1.08-.583 0-.939.412-.939 1.08v2.255h-.583v-3.77Zm6.755 3.77-.398 1.052h-.342l.271-1.052h-.306v-.761h.754v.76h.021Zm2.511-2.66c.149-.732.733-1.195 1.536-1.195.974 0 1.515.57 1.515 1.58v1.514c0 .17.071.242.234.242h.15v.519h-.249c-.384 0-.718-.128-.711-.59-.164.355-.59.675-1.188.675-.746 0-1.351-.398-1.351-1.067 0-.775.59-.974 1.415-1.137l1.117-.214c-.007-.654-.313-.967-.932-.967-.483 0-.803.249-.917.69l-.619-.05Zm.548 1.678c0 .306.263.555.817.548.626 0 1.117-.441 1.117-1.316v-.064l-.903.157c-.562.1-1.031.142-1.031.675Zm3.686-2.787h.533l.022.647c.192-.505.64-.733 1.159-.733.86 0 1.273.633 1.273 1.43v2.425h-.583V58.3c0-.696-.235-1.08-.811-1.08-.612 0-1.01.384-1.01 1.08v2.255h-.583v-3.77Zm7.044-1.28v5.049h-.526l-.021-.555c-.214.398-.619.64-1.202.64-1.088 0-1.593-.924-1.593-1.97 0-1.045.505-1.97 1.593-1.97.555 0 .953.214 1.166.598v-1.792h.583Zm-2.73 3.164c0 .733.313 1.415 1.102 1.415.775 0 1.095-.697 1.095-1.415 0-.746-.32-1.436-1.095-1.436-.789 0-1.102.682-1.102 1.436Zm7.854-.725c-.085-.434-.512-.69-.938-.69-.427 0-.768.22-.768.583.007.37.483.526.91.619.86.163 1.479.405 1.479 1.138 0 .725-.747 1.045-1.465 1.045-.889 0-1.571-.49-1.628-1.266l.611-.042c.071.455.441.753 1.017.753.384 0 .853-.128.853-.519 0-.455-.54-.505-.974-.611-.697-.164-1.408-.363-1.408-1.081-.007-.718.576-1.174 1.437-1.174.753 0 1.365.477 1.486 1.202l-.612.043Zm1.589 3.676v-4.835h.526l.022.576c.206-.427.618-.662 1.166-.662 1.123 0 1.628.925 1.628 1.97 0 1.046-.505 1.97-1.628 1.97-.526 0-.925-.22-1.131-.626v1.607h-.583Zm.519-2.95c0 .717.327 1.407 1.095 1.407.783 0 1.103-.675 1.103-1.408 0-.732-.32-1.415-1.103-1.415-.768 0-1.095.697-1.095 1.415Zm3.489 0c0-1.195.675-1.97 1.721-1.97.839 0 1.571.561 1.635 1.891l.007.263h-2.745c.057.775.448 1.23 1.103 1.23.412 0 .782-.241.952-.64l.626.043a1.622 1.622 0 0 1-1.578 1.152c-1.046 0-1.721-.775-1.721-1.97Zm.633-.335h2.09c-.106-.796-.533-1.08-1.002-1.08-.605 0-.996.397-1.088 1.08Zm3.401.334c0-1.194.676-1.97 1.721-1.97.839 0 1.572.562 1.636 1.892l.007.263h-2.745c.057.775.448 1.23 1.102 1.23.413 0 .782-.241.953-.64l.626.043a1.624 1.624 0 0 1-1.579 1.152c-1.045 0-1.721-.775-1.721-1.97Zm.633-.334h2.091c-.107-.796-.533-1.08-1.003-1.08-.604 0-.995.397-1.088 1.08Zm6.744-2.83v5.049h-.526L471.9 60c-.214.398-.619.64-1.202.64-1.088 0-1.593-.924-1.593-1.97 0-1.045.505-1.97 1.593-1.97.555 0 .953.214 1.166.598v-1.792h.583Zm-2.73 3.164c0 .733.313 1.415 1.102 1.415.775 0 1.095-.697 1.095-1.415 0-.746-.32-1.436-1.095-1.436-.789 0-1.102.682-1.102 1.436Zm4.441 1.885-.398 1.052h-.342l.271-1.052h-.306v-.761h.754v.76h.021Zm5.789-5.05v5.05h-.526L479.4 60c-.214.398-.619.64-1.202.64-1.088 0-1.593-.924-1.593-1.97 0-1.045.505-1.97 1.593-1.97.555 0 .953.214 1.166.598v-1.792h.583Zm-2.73 3.165c0 .733.313 1.415 1.102 1.415.775 0 1.095-.697 1.095-1.415 0-.746-.32-1.436-1.095-1.436-.789 0-1.102.682-1.102 1.436Zm3.936-1.884h.512l.021.697c.128-.477.413-.697.904-.697h.362v.512h-.362c-.576 0-.854.355-.854 1.01v2.247h-.583v-3.77Zm2.391 1.11c.149-.733.733-1.196 1.536-1.196.974 0 1.515.57 1.515 1.58v1.514c0 .17.071.242.234.242h.15v.519h-.249c-.384 0-.718-.128-.711-.59-.164.355-.59.675-1.188.675-.746 0-1.351-.398-1.351-1.067 0-.775.59-.974 1.415-1.137l1.117-.214c-.007-.654-.313-.967-.932-.967-.483 0-.803.249-.917.69l-.619-.05Zm.548 1.677c0 .306.263.555.817.548.626 0 1.117-.441 1.117-1.316v-.064l-.903.157c-.562.1-1.031.142-1.031.675Zm6.282-2.787.903 3.122.91-3.122h.626l-1.166 3.769h-.733l-.846-2.887-.853 2.887h-.733l-1.166-3.77h.626l.91 3.123.903-3.122h.619Zm3.203 0h.583v3.769h-.583v-3.77Zm-.015-.59v-.676h.612v.676h-.612Zm1.806.59h.534l.021.647c.192-.505.64-.733 1.159-.733.861 0 1.273.633 1.273 1.43v2.425h-.583V58.3c0-.696-.235-1.08-.811-1.08-.611 0-1.01.384-1.01 1.08v2.255h-.583v-3.77Zm5.395 3.57c-1.031 0-1.693-.768-1.693-1.828s.676-1.828 1.693-1.828c.505 0 .917.285 1.081.69v-.604h.561v3.399c0 .988-.675 1.522-1.656 1.522-.804 0-1.408-.441-1.572-1.095l.612-.043c.149.363.476.583.96.583.668 0 1.073-.299 1.073-.84v-.625a1.19 1.19 0 0 1-1.059.669Zm-1.081-1.828c0 .74.405 1.273 1.081 1.273.647 0 1.059-.54 1.066-1.273.015-.732-.398-1.273-1.066-1.273-.676 0-1.081.533-1.081 1.273Zm-101.744 7.258h.583v3.769h-.583v-3.77Zm-.014-.59v-.676h.611v.676h-.611Zm1.805.59h.534l.021.647c.192-.505.64-.733 1.159-.733.861 0 1.273.633 1.273 1.43v2.425h-.583V67.3c0-.696-.235-1.08-.811-1.08-.611 0-1.009.384-1.009 1.08v2.255h-.584v-3.77Zm6.113 1.159c-.085-.434-.512-.69-.939-.69-.426 0-.768.22-.768.583.008.37.484.526.911.619.86.163 1.479.405 1.479 1.138 0 .725-.747 1.045-1.465 1.045-.889 0-1.572-.49-1.629-1.266l.612-.042c.071.455.441.753 1.017.753.384 0 .853-.128.853-.519 0-.455-.54-.505-.974-.611-.697-.164-1.408-.363-1.408-1.081-.007-.718.576-1.174 1.436-1.174.754 0 1.366.477 1.487 1.202l-.612.043Zm1.589 3.676v-4.835h.526l.021.576c.207-.427.619-.662 1.167-.662 1.123 0 1.628.925 1.628 1.97 0 1.046-.505 1.97-1.628 1.97-.527 0-.925-.22-1.131-.626v1.607h-.583Zm.519-2.95c0 .717.327 1.407 1.095 1.407.782 0 1.102-.675 1.102-1.408 0-.732-.32-1.415-1.102-1.415-.768 0-1.095.697-1.095 1.415Zm3.724-1.885h.583v3.769h-.583v-3.77Zm-.014-.59v-.676h.611v.676h-.611Zm1.806.59h.512l.021.697c.128-.477.412-.697.903-.697h.363v.512h-.363c-.576 0-.853.355-.853 1.01v2.247h-.583v-3.77Zm2.391 1.11c.149-.733.732-1.196 1.536-1.196.974 0 1.514.57 1.514 1.58v1.514c0 .17.071.242.235.242h.149v.519h-.249c-.384 0-.718-.128-.711-.59-.163.355-.59.675-1.187.675-.747 0-1.351-.398-1.351-1.067 0-.775.59-.974 1.415-1.137l1.116-.214c-.007-.654-.313-.967-.931-.967-.484 0-.804.249-.918.69l-.618-.05Zm.547 1.677c0 .306.263.555.818.548.626 0 1.116-.441 1.116-1.316v-.064l-.903.157c-.562.1-1.031.142-1.031.675Zm3.765-3.64h.583v.853h1.003v.519h-1.003v2.254c0 .32.156.477.455.477h.541v.519h-.541c-.668 0-1.038-.356-1.038-.996v-2.254h-.555v-.52h.555v-.853Zm2.463.853h.583v3.769h-.583v-3.77Zm-.014-.59v-.676h.612v.676h-.612Zm3.257 4.444c-1.046 0-1.721-.775-1.721-1.97 0-1.194.675-1.97 1.721-1.97 1.045 0 1.72.776 1.72 1.97 0 1.195-.675 1.97-1.72 1.97Zm-1.11-1.97c0 .882.406 1.415 1.11 1.415.696 0 1.109-.533 1.109-1.415s-.413-1.415-1.109-1.415c-.704 0-1.11.533-1.11 1.415Zm3.735-1.884h.534l.021.647c.192-.505.64-.733 1.159-.733.861 0 1.273.633 1.273 1.43v2.425h-.583V67.3c0-.696-.235-1.08-.811-1.08-.611 0-1.01.384-1.01 1.08v2.255h-.583v-3.77Zm6.301-.256c0-.619.32-1.024 1.009-1.024h.569v.512h-.576c-.249 0-.419.199-.419.512v.256h.953v.519h-.953v3.25h-.583v-3.25h-.512v-.52h.512v-.255Zm2.484.256h.512l.021.697c.128-.477.413-.697.903-.697h.363v.512h-.363c-.576 0-.853.355-.853 1.01v2.247h-.583v-3.77Zm3.902 3.854c-1.045 0-1.721-.775-1.721-1.97 0-1.194.676-1.97 1.721-1.97s1.721.776 1.721 1.97c0 1.195-.676 1.97-1.721 1.97Zm-1.109-1.97c0 .882.405 1.415 1.109 1.415.697 0 1.109-.533 1.109-1.415s-.412-1.415-1.109-1.415c-.704 0-1.109.533-1.109 1.415Zm3.735-1.884h.533l.021.64c.171-.462.562-.726 1.088-.726.541 0 .932.292 1.096.797.163-.512.561-.797 1.152-.797.753 0 1.194.527 1.194 1.43v2.425h-.583V67.3c0-.69-.27-1.08-.732-1.08-.591 0-.932.398-.932 1.088v2.247h-.583V67.3c0-.675-.277-1.08-.732-1.08-.584 0-.939.412-.939 1.08v2.255h-.583v-3.77Zm8.404-.854h.584v.854h1.002v.519h-1.002v2.254c0 .32.156.477.455.477h.54v.519h-.54c-.669 0-1.039-.356-1.039-.996v-2.254h-.554v-.52h.554v-.853Zm2.464-.426h.583v1.806c.22-.42.661-.612 1.131-.612.86 0 1.273.633 1.273 1.43v2.425h-.584v-2.212c0-.704-.234-1.088-.81-1.088-.612 0-1.01.384-1.01 1.088v2.212h-.583v-5.05Zm3.702 3.164c0-1.194.675-1.97 1.721-1.97.839 0 1.571.562 1.635 1.892l.007.263h-2.744c.056.775.448 1.23 1.102 1.23.412 0 .782-.241.953-.64l.625.043a1.622 1.622 0 0 1-1.578 1.152c-1.046 0-1.721-.775-1.721-1.97Zm.633-.334h2.09c-.106-.796-.533-1.08-1.002-1.08-.605 0-.996.397-1.088 1.08Zm5.45-1.55h.512l.021.697c.128-.477.412-.697.903-.697h.363v.512h-.363c-.576 0-.853.355-.853 1.01v2.247h-.583v-3.77Zm2.181 1.884c0-1.194.675-1.97 1.721-1.97.839 0 1.571.562 1.635 1.892l.007.263h-2.745c.057.775.448 1.23 1.103 1.23.412 0 .782-.241.953-.64l.625.043a1.622 1.622 0 0 1-1.578 1.152c-1.046 0-1.721-.775-1.721-1.97Zm.633-.334h2.09c-.106-.796-.533-1.08-1.002-1.08-.605 0-.996.397-1.088 1.08Zm3.637-1.55h.533l.022.647c.192-.505.64-.733 1.159-.733.86 0 1.273.633 1.273 1.43v2.425h-.583V67.3c0-.696-.235-1.08-.811-1.08-.612 0-1.01.384-1.01 1.08v2.255h-.583v-3.77Zm5.423 3.854c-1.045 0-1.721-.775-1.721-1.97 0-1.194.676-1.97 1.721-1.97s1.721.776 1.721 1.97c0 1.195-.676 1.97-1.721 1.97Zm-1.109-1.97c0 .882.405 1.415 1.109 1.415.697 0 1.109-.533 1.109-1.415s-.412-1.415-1.109-1.415c-.704 0-1.109.533-1.109 1.415Zm6.199-1.884.903 3.122.91-3.122h.626l-1.167 3.769h-.732l-.846-2.887-.854 2.887h-.732l-1.166-3.77h.626l.91 3.123.903-3.122h.619Zm3.202 0h.534l.021.647c.192-.505.64-.733 1.159-.733.86 0 1.273.633 1.273 1.43v2.425h-.583V67.3c0-.696-.235-1.08-.811-1.08-.611 0-1.01.384-1.01 1.08v2.255h-.583v-3.77Zm3.702 1.884c0-1.194.676-1.97 1.721-1.97.839 0 1.572.562 1.636 1.892l.007.263h-2.745c.057.775.448 1.23 1.102 1.23.413 0 .782-.241.953-.64l.626.043a1.625 1.625 0 0 1-1.579 1.152c-1.045 0-1.721-.775-1.721-1.97Zm.633-.334h2.091c-.107-.796-.534-1.08-1.003-1.08-.604 0-.995.397-1.088 1.08Zm6.744-2.83v5.049h-.526l-.021-.555c-.214.398-.619.64-1.202.64-1.088 0-1.593-.924-1.593-1.97 0-1.045.505-1.97 1.593-1.97.555 0 .953.214 1.166.598v-1.792h.583Zm-2.73 3.164c0 .733.312 1.415 1.102 1.415.775 0 1.095-.697 1.095-1.415 0-.746-.32-1.436-1.095-1.436-.79 0-1.102.682-1.102 1.436Zm-94.602 9.235c.128.683.611 1.152 1.415 1.152.654 0 1.095-.27 1.095-.775 0-.512-.441-.825-1.458-1.088-.839-.214-1.571-.612-1.571-1.422 0-.847.682-1.38 1.649-1.38 1.081 0 1.799.676 1.899 1.6l-.626.043c-.085-.633-.576-1.06-1.28-1.06-.59 0-1.017.306-1.017.797 0 .618.719.789 1.38.974.931.256 1.65.71 1.65 1.479 0 .924-.854 1.415-1.764 1.415-1.109 0-1.92-.683-1.998-1.692l.626-.043Zm6.669-2.12.903 3.123.91-3.122h.626l-1.167 3.769h-.732l-.846-2.887-.854 2.887h-.732l-1.166-3.77h.626l.91 3.123.903-3.122h.619Zm3.202 0h.583v3.77h-.583v-3.77Zm-.014-.59v-.675h.612v.676h-.612Zm3.946 1.75c-.085-.434-.512-.69-.938-.69-.427 0-.768.22-.768.583.007.37.483.526.91.619.86.163 1.479.405 1.479 1.138 0 .725-.747 1.045-1.465 1.045-.889 0-1.571-.49-1.628-1.266l.611-.042c.071.455.441.753 1.017.753.384 0 .854-.128.854-.519 0-.455-.541-.505-.975-.611-.697-.164-1.408-.363-1.408-1.081-.007-.718.576-1.174 1.437-1.174.754 0 1.365.477 1.486 1.202l-.612.043Zm3.764 0c-.085-.434-.512-.69-.938-.69-.427 0-.768.22-.768.583.007.37.483.526.91.619.86.163 1.479.405 1.479 1.138 0 .725-.747 1.045-1.465 1.045-.889 0-1.571-.49-1.628-1.266l.611-.042c.071.455.441.753 1.017.753.384 0 .853-.128.853-.519 0-.455-.54-.505-.974-.611-.697-.164-1.408-.363-1.408-1.081-.007-.718.576-1.174 1.437-1.174.753 0 1.365.477 1.486 1.202l-.612.043Zm6.474-2.44v5.05h-.527l-.021-.555c-.213.398-.619.64-1.202.64-1.088 0-1.593-.924-1.593-1.97 0-1.045.505-1.97 1.593-1.97.555 0 .953.214 1.166.598v-1.792h.584Zm-2.731 3.165c0 .733.313 1.415 1.102 1.415.775 0 1.095-.697 1.095-1.415 0-.746-.32-1.436-1.095-1.436-.789 0-1.102.682-1.102 1.436Zm3.666 0c0-1.194.676-1.97 1.721-1.97.839 0 1.572.562 1.636 1.892l.007.263h-2.745c.057.775.448 1.23 1.102 1.23.412 0 .782-.241.953-.64l.626.043a1.625 1.625 0 0 1-1.579 1.152c-1.045 0-1.721-.775-1.721-1.97Zm.633-.334h2.091c-.107-.796-.534-1.08-1.003-1.08-.604 0-.996.397-1.088 1.08Zm5.812-.391c-.085-.434-.512-.69-.938-.69-.427 0-.768.22-.768.583.007.37.483.526.91.619.86.163 1.479.405 1.479 1.138 0 .725-.747 1.045-1.465 1.045-.889 0-1.571-.49-1.628-1.266l.611-.042c.071.455.441.753 1.017.753.384 0 .854-.128.854-.519 0-.455-.541-.505-.975-.611-.697-.164-1.408-.363-1.408-1.081-.007-.718.576-1.174 1.437-1.174.754 0 1.365.477 1.486 1.202l-.612.043Zm1.589-1.16h.583v3.77h-.583v-3.77Zm-.014-.59v-.675h.612v.676h-.612Zm3.228 4.16c-1.031 0-1.692-.767-1.692-1.827s.675-1.828 1.692-1.828c.505 0 .917.285 1.081.69v-.604h.562v3.399c0 .988-.676 1.522-1.657 1.522-.804 0-1.408-.441-1.572-1.095l.612-.043c.149.363.476.583.96.583.668 0 1.074-.299 1.074-.84v-.625a1.192 1.192 0 0 1-1.06.669Zm-1.081-1.827c0 .74.406 1.273 1.081 1.273.647 0 1.06-.54 1.067-1.273.014-.732-.398-1.273-1.067-1.273-.675 0-1.081.533-1.081 1.273Zm3.93-1.742h.533l.021.647c.192-.505.64-.733 1.159-.733.861 0 1.273.633 1.273 1.43v2.425h-.583V76.3c0-.696-.234-1.08-.81-1.08-.612 0-1.01.384-1.01 1.08v2.255h-.583v-3.77Zm5.93 0h.534l.021.64c.171-.462.562-.726 1.088-.726.54 0 .931.292 1.095.797.164-.512.562-.797 1.152-.797.754 0 1.195.527 1.195 1.43v2.425h-.583V76.3c0-.69-.271-1.08-.733-1.08-.59 0-.931.398-.931 1.088v2.247h-.584V76.3c0-.675-.277-1.08-.732-1.08-.583 0-.939.412-.939 1.08v2.255h-.583v-3.77Zm7.52 3.854c-1.045 0-1.721-.775-1.721-1.97 0-1.194.676-1.97 1.721-1.97 1.046 0 1.721.776 1.721 1.97 0 1.195-.675 1.97-1.721 1.97Zm-1.109-1.97c0 .882.405 1.415 1.109 1.415.697 0 1.11-.533 1.11-1.415s-.413-1.415-1.11-1.415c-.704 0-1.109.533-1.109 1.415Zm6.626-1.884-1.38 3.769h-.725l-1.38-3.77h.626l1.116 3.158 1.117-3.157h.626Zm.311 1.884c0-1.194.676-1.97 1.721-1.97.839 0 1.572.562 1.636 1.892l.007.263h-2.745c.057.775.448 1.23 1.102 1.23.412 0 .782-.241.953-.64l.626.043a1.625 1.625 0 0 1-1.579 1.152c-1.045 0-1.721-.775-1.721-1.97Zm.633-.334h2.091c-.107-.796-.534-1.08-1.003-1.08-.604 0-.996.397-1.088 1.08Zm3.637-1.55h.534l.021.64c.171-.462.562-.726 1.088-.726.54 0 .932.292 1.095.797.164-.512.562-.797 1.152-.797.754 0 1.195.527 1.195 1.43v2.425h-.583V76.3c0-.69-.271-1.08-.733-1.08-.59 0-.931.398-.931 1.088v2.247h-.583V76.3c0-.675-.278-1.08-.733-1.08-.583 0-.939.412-.939 1.08v2.255H461v-3.77Zm5.8 1.884c0-1.194.675-1.97 1.72-1.97.84 0 1.572.562 1.636 1.892l.007.263h-2.745c.057.775.448 1.23 1.102 1.23.413 0 .783-.241.953-.64l.626.043a1.623 1.623 0 0 1-1.579 1.152c-1.045 0-1.72-.775-1.72-1.97Zm.632-.334h2.091c-.107-.796-.533-1.08-1.003-1.08-.604 0-.995.397-1.088 1.08Zm3.638-1.55h.533l.021.647c.192-.505.64-.733 1.16-.733.86 0 1.272.633 1.272 1.43v2.425h-.583V76.3c0-.696-.234-1.08-.81-1.08-.612 0-1.01.384-1.01 1.08v2.255h-.583v-3.77Zm4.356-.854h.583v.854h1.003v.519h-1.003v2.254c0 .32.156.477.455.477h.54v.519h-.54c-.668 0-1.038-.356-1.038-.996v-2.254h-.555v-.52h.555v-.853Zm2.325 3.862h.754v.76h-.754v-.76ZM155.507 601.001c.037.199.107.375.211.529.104.153.237.271.398.354.166.083.355.125.567.125.174 0 .327-.025.46-.075a.709.709 0 0 0 .317-.23.598.598 0 0 0 .119-.373c0-.22-.098-.403-.293-.548-.195-.149-.502-.284-.921-.404-.385-.108-.701-.262-.945-.461a.961.961 0 0 1-.368-.784 1.133 1.133 0 0 1 .672-1.058c.212-.099.448-.149.71-.149.286 0 .545.06.778.18.236.121.425.289.566.504.141.212.226.451.255.716l-.548.037a1.089 1.089 0 0 0-.186-.485.945.945 0 0 0-.374-.324 1.094 1.094 0 0 0-.504-.118.9.9 0 0 0-.585.193.622.622 0 0 0-.236.504c0 .162.048.295.143.398.1.104.22.185.361.243.141.058.334.122.579.193.012 0 .031.006.056.019.419.124.755.294 1.008.51a.982.982 0 0 1 .379.784 1.1 1.1 0 0 1-.211.672 1.326 1.326 0 0 1-.554.423 1.86 1.86 0 0 1-.722.143c-.299 0-.572-.062-.821-.187a1.541 1.541 0 0 1-.859-1.294l.548-.037Zm3.307-.206c0-.348.061-.651.181-.908.124-.261.301-.463.529-.604.228-.141.493-.211.796-.211.253 0 .486.058.697.174.212.116.382.299.51.548.133.249.206.56.218.933l.006.23h-2.395c.02.34.114.606.28.797.17.186.398.28.684.28.183 0 .349-.05.498-.15a.913.913 0 0 0 .336-.41l.548.037a1.378 1.378 0 0 1-.529.734 1.421 1.421 0 0 1-.853.274c-.303 0-.568-.071-.796-.212a1.399 1.399 0 0 1-.529-.597 2.171 2.171 0 0 1-.181-.915Zm2.384-.292c-.046-.328-.148-.566-.305-.716a.794.794 0 0 0-.573-.23.876.876 0 0 0-.647.249c-.162.162-.263.394-.305.697h1.83Zm1.69-1.356.018.46a.856.856 0 0 1 .268-.398.656.656 0 0 1 .417-.137c.141 0 .257.05.348.149.091.1.164.257.218.473a.948.948 0 0 1 .28-.454.653.653 0 0 1 .442-.168c.253 0 .435.112.547.336.116.22.174.572.174 1.058v1.978h-.51v-1.978c0-.34-.027-.581-.081-.722-.054-.145-.145-.218-.273-.218-.1 0-.185.037-.256.112a.79.79 0 0 0-.155.324 1.96 1.96 0 0 0-.056.504v1.978h-.51v-1.978c0-.336-.031-.577-.094-.722-.058-.145-.159-.218-.305-.218a.295.295 0 0 0-.224.112.843.843 0 0 0-.149.324c-.033.141-.05.309-.05.504v1.978h-.51v-3.297h.461Zm5.311 0v3.297h-.51v-3.297h.51Zm0 0v.454H166.5v-.454h1.699Zm1.008 2.843v.454H166.5v-.454h2.707Zm-1.008-3.963v.622h-.579v-.622h.579Zm2.405 0v1.568a.995.995 0 0 1 .399-.386c.174-.091.381-.137.622-.137.307 0 .564.079.771.236.208.158.363.367.467.629.104.257.156.543.156.858 0 .316-.052.604-.156.865a1.433 1.433 0 0 1-.467.629c-.207.153-.464.23-.771.23-.249 0-.463-.048-.641-.143a1.031 1.031 0 0 1-.411-.417l-.018.485h-.461v-4.417h.51Zm-.043 2.768c0 .22.033.424.099.61.071.187.177.338.318.454a.833.833 0 0 0 .541.175c.324 0 .564-.119.722-.355.162-.241.243-.535.243-.884 0-.36-.081-.659-.243-.896-.158-.24-.398-.36-.722-.36a.838.838 0 0 0-.541.174 1.058 1.058 0 0 0-.318.46 1.857 1.857 0 0 0-.099.622Zm4.627 1.724c-.303 0-.568-.071-.797-.212a1.41 1.41 0 0 1-.522-.597 2.097 2.097 0 0 1-.187-.915c0-.348.062-.651.187-.908.124-.261.298-.463.522-.604.229-.141.494-.211.797-.211.303 0 .566.07.79.211.228.141.404.343.529.604.124.257.187.56.187.908 0 .349-.063.654-.187.915a1.405 1.405 0 0 1-.529.597 1.451 1.451 0 0 1-.79.212Zm0-.485c.307 0 .545-.108.715-.324.17-.22.255-.525.255-.915 0-.389-.085-.692-.255-.908-.17-.22-.408-.33-.715-.33s-.546.11-.716.33c-.17.216-.255.519-.255.908 0 .39.085.695.255.915.17.216.409.324.716.324Zm5.212-.044v.454h-2.707v-.454h2.707Zm-1.55.454v-3.584c0-.132-.031-.228-.093-.286-.058-.062-.149-.093-.274-.093h-.784v-.454h.784c.282 0 .498.072.647.217.154.141.23.347.23.616v3.584h-.51Zm4.652-4.417h.51v4.417h-.46l-.019-.485a1.022 1.022 0 0 1-.41.417 1.348 1.348 0 0 1-.641.143c-.307 0-.565-.077-.772-.23a1.44 1.44 0 0 1-.467-.629 2.336 2.336 0 0 1-.155-.865c0-.315.052-.601.155-.858a1.44 1.44 0 0 1 .467-.629c.207-.157.465-.236.772-.236.24 0 .446.046.616.137.174.091.309.22.404.386v-1.568Zm-.062 3.378c.07-.186.106-.39.106-.61a1.76 1.76 0 0 0-.106-.622.994.994 0 0 0-.317-.46.818.818 0 0 0-.536-.174c-.323 0-.566.12-.728.36-.157.237-.236.536-.236.896 0 .349.079.643.236.884.162.236.405.355.728.355a.813.813 0 0 0 .536-.175.996.996 0 0 0 .317-.454Z" fill="#171717"/><path d="M154.878 590.027h.535l.411 4.119h-.05l.498-3.746h.523l.497 3.746h-.049l.41-4.119h.535l-.448 4.417h-.827l-.467-3.814h.174l-.466 3.814h-.828l-.448-4.417Zm3.936 2.768c0-.348.061-.651.181-.908.124-.261.301-.463.529-.604.228-.141.493-.211.796-.211.253 0 .486.058.697.174.212.116.382.299.51.548.133.249.206.56.218.933l.006.23h-2.395c.02.34.114.606.28.797.17.186.398.28.684.28.183 0 .349-.05.498-.15a.913.913 0 0 0 .336-.41l.548.037a1.378 1.378 0 0 1-.529.734 1.421 1.421 0 0 1-.853.274c-.303 0-.568-.071-.796-.212a1.399 1.399 0 0 1-.529-.597 2.171 2.171 0 0 1-.181-.915Zm2.384-.292c-.046-.328-.148-.566-.305-.716a.794.794 0 0 0-.573-.23.876.876 0 0 0-.647.249c-.162.162-.263.394-.305.697h1.83Zm3.27-1.356v3.297h-.51v-3.297h.51Zm0 0v.454h-1.699v-.454h1.699Zm1.008 2.843v.454h-2.707v-.454h2.707Zm-1.008-3.963v.622h-.579v-.622h.579Zm3.246 4.243c-.299 0-.56-.068-.784-.205a1.367 1.367 0 0 1-.517-.566 1.858 1.858 0 0 1-.18-.828c0-.307.06-.581.18-.821.125-.245.299-.436.523-.573a1.48 1.48 0 0 1 .778-.205c.215 0 .408.056.578.168a.872.872 0 0 1 .367.435v-.528h.486v2.974c0 .427-.133.755-.399.983-.261.232-.611.348-1.051.348-.232 0-.444-.039-.635-.118a1.29 1.29 0 0 1-.479-.336 1.194 1.194 0 0 1-.255-.504l.535-.037c.066.162.17.286.311.373.145.091.32.137.523.137.299 0 .529-.064.691-.193.165-.124.248-.305.248-.541v-.548a1.064 1.064 0 0 1-.398.436c-.166.099-.34.149-.522.149Zm-.946-1.599c0 .216.037.409.112.579a.912.912 0 0 0 .323.392.915.915 0 0 0 .511.143.82.82 0 0 0 .479-.143.953.953 0 0 0 .329-.392c.079-.17.119-.363.119-.579.004-.212-.031-.4-.106-.566a.862.862 0 0 0-.821-.542.908.908 0 0 0-.511.144.857.857 0 0 0-.323.392 1.37 1.37 0 0 0-.112.572Zm3.961-2.644v1.854l-.075-.087a.882.882 0 0 1 .392-.535c.195-.125.419-.187.672-.187.361 0 .637.116.828.348.191.233.286.533.286.903v2.121h-.51v-1.935c0-.319-.058-.558-.174-.715-.112-.158-.291-.237-.536-.237-.269 0-.485.083-.647.249-.157.166-.236.4-.236.703v1.935h-.51v-4.417h.51Zm4.446.248v3.273c0 .137.038.245.112.324.075.079.181.118.318.118h.821v.454h-.821c-.32 0-.556-.078-.71-.236-.153-.158-.23-.38-.23-.666v-3.267h.51Zm1.263.872v.454h-2.656v-.454h2.656ZM155.507 554.779c.037.199.107.376.211.529.104.153.237.272.398.355.166.083.355.124.567.124.174 0 .327-.025.46-.075a.694.694 0 0 0 .317-.23.596.596 0 0 0 .119-.373c0-.22-.098-.402-.293-.548-.195-.149-.502-.284-.921-.404-.385-.108-.701-.261-.945-.461a.961.961 0 0 1-.368-.784c0-.24.061-.452.181-.634.12-.183.284-.324.491-.423.212-.1.448-.15.71-.15.286 0 .545.06.778.181.236.12.425.288.566.504.141.211.226.45.255.715l-.548.038a1.088 1.088 0 0 0-.186-.486.935.935 0 0 0-.374-.323 1.082 1.082 0 0 0-.504-.118.9.9 0 0 0-.585.192.622.622 0 0 0-.236.504c0 .162.048.295.143.399.1.103.22.184.361.242.141.058.334.123.579.193.012 0 .031.006.056.019.419.124.755.294 1.008.51a.984.984 0 0 1 .379.784 1.1 1.1 0 0 1-.211.672 1.31 1.31 0 0 1-.554.423 1.842 1.842 0 0 1-.722.143c-.299 0-.572-.062-.821-.186a1.538 1.538 0 0 1-.859-1.295l.548-.037Zm3.395-1.854h.46l.025.722-.056-.1c.083-.224.216-.396.398-.516.183-.121.407-.181.672-.181.311 0 .573.079.784.237.216.153.375.361.479.622.104.257.156.545.156.865 0 .315-.052.603-.156.865a1.405 1.405 0 0 1-.479.622c-.211.158-.473.236-.784.236-.174 0-.334-.027-.479-.081a1.036 1.036 0 0 1-.367-.242 1.032 1.032 0 0 1-.218-.386l.075-.087v1.655h-.51v-4.231Zm.448 1.649c0 .22.035.423.105.61.071.186.179.338.324.454a.848.848 0 0 0 .535.168c.315 0 .554-.118.716-.355.161-.236.242-.529.242-.877 0-.349-.081-.641-.242-.878-.162-.24-.401-.36-.716-.36a.829.829 0 0 0-.535.174 1.04 1.04 0 0 0-.324.454c-.07.187-.105.39-.105.61Zm3.195 0c0-.349.06-.651.181-.909.124-.261.301-.462.529-.603.228-.141.493-.212.796-.212.253 0 .485.058.697.174.212.117.382.299.51.548.133.249.206.56.218.933l.006.231h-2.395c.02.34.114.605.28.796.17.187.398.28.684.28a.88.88 0 0 0 .498-.149.921.921 0 0 0 .336-.411l.547.037a1.377 1.377 0 0 1-.528.735 1.427 1.427 0 0 1-.853.273c-.303 0-.568-.07-.796-.211a1.396 1.396 0 0 1-.529-.598 2.154 2.154 0 0 1-.181-.914Zm2.383-.293c-.045-.327-.147-.566-.304-.715a.79.79 0 0 0-.573-.23.879.879 0 0 0-.647.248c-.162.162-.263.395-.305.697h1.829Zm3.719-.255a.794.794 0 0 0-.293-.504.858.858 0 0 0-.547-.186c-.307 0-.546.109-.716.329-.17.216-.255.519-.255.909s.085.695.255.914c.17.216.409.324.716.324a.84.84 0 0 0 .56-.199.885.885 0 0 0 .299-.554l.541.031a1.38 1.38 0 0 1-.249.641 1.34 1.34 0 0 1-.504.423 1.47 1.47 0 0 1-.647.143c-.303 0-.568-.07-.797-.211a1.407 1.407 0 0 1-.522-.598 2.095 2.095 0 0 1-.187-.914c0-.349.062-.651.187-.909.124-.261.298-.462.522-.603.229-.141.494-.212.797-.212.224 0 .435.048.635.143.203.092.369.224.497.399.129.174.21.375.243.603l-.535.031Zm3.625-.087a.666.666 0 0 0-.299-.435.94.94 0 0 0-.56-.168.797.797 0 0 0-.479.143.44.44 0 0 0-.193.379c0 .104.031.189.094.255a.781.781 0 0 0 .23.15c.091.033.216.07.373.112a.766.766 0 0 1 .1.031c.261.066.479.135.653.205.178.071.326.168.442.293a.674.674 0 0 1 .174.479.752.752 0 0 1-.373.684c-.249.154-.552.23-.909.23a1.73 1.73 0 0 1-.697-.137 1.265 1.265 0 0 1-.51-.385 1.092 1.092 0 0 1-.218-.585l.529-.038a.738.738 0 0 0 .15.349.818.818 0 0 0 .317.23c.133.054.276.081.429.081.216 0 .394-.035.535-.106a.36.36 0 0 0 .212-.348.304.304 0 0 0-.1-.243.612.612 0 0 0-.236-.137 6.045 6.045 0 0 0-.361-.099l-.131-.031c-.381-.092-.684-.206-.908-.343a.686.686 0 0 1-.33-.616c0-.215.056-.4.168-.553.116-.158.27-.278.461-.361.195-.083.406-.125.634-.125.34 0 .631.098.871.293.241.19.388.444.442.759l-.51.037ZM428.23 554.82c0 .506-.13.907-.392 1.201-.257.295-.618.442-1.082.442-.465 0-.828-.147-1.089-.442-.257-.294-.386-.695-.386-1.201v-2.881h.523v2.881c0 .365.08.645.242.84.162.195.398.293.71.293.311 0 .547-.098.709-.293.162-.195.243-.475.243-.84v-2.881h.522v2.881Zm3.072-.74a.671.671 0 0 0-.299-.436.942.942 0 0 0-.56-.168.801.801 0 0 0-.479.143.44.44 0 0 0-.193.38c0 .104.031.189.093.255a.792.792 0 0 0 .23.149c.092.033.216.071.374.112.033.009.066.019.099.031.262.067.479.135.654.206.178.07.325.168.441.292a.672.672 0 0 1 .175.479.755.755 0 0 1-.374.685c-.249.153-.551.23-.908.23-.253 0-.485-.046-.697-.137a1.254 1.254 0 0 1-.51-.386 1.084 1.084 0 0 1-.218-.585l.529-.037c.021.133.07.249.149.349a.821.821 0 0 0 .318.23c.132.054.275.081.429.081.216 0 .394-.036.535-.106a.363.363 0 0 0 .212-.349.306.306 0 0 0-.1-.242.612.612 0 0 0-.236-.137 7.056 7.056 0 0 0-.361-.1l-.131-.031c-.382-.091-.684-.205-.908-.342a.686.686 0 0 1-.33-.616c0-.216.056-.4.168-.554a1.11 1.11 0 0 1 .46-.361c.195-.083.407-.124.635-.124.34 0 .63.097.871.292.241.191.388.444.442.759l-.51.038Zm1.515-.044c.058-.311.21-.562.455-.753.248-.195.543-.292.883-.292.411 0 .734.118.971.355.236.236.354.578.354 1.026v1.326c0 .07.017.124.05.161.033.033.085.05.156.05h.137v.454h-.168a.738.738 0 0 1-.461-.137.624.624 0 0 1-.218-.379.933.933 0 0 1-.385.423 1.229 1.229 0 0 1-.654.168c-.219 0-.419-.037-.597-.112a.99.99 0 0 1-.423-.324.832.832 0 0 1-.156-.497c0-.216.05-.388.15-.517a.918.918 0 0 1 .404-.292c.174-.071.4-.133.678-.187l.977-.187c-.004-.278-.079-.487-.224-.628-.141-.145-.338-.218-.591-.218a.804.804 0 0 0-.516.168.757.757 0 0 0-.274.436l-.548-.044Zm.479 1.469a.42.42 0 0 0 .181.348c.12.091.297.135.529.131.182 0 .348-.042.498-.125a.872.872 0 0 0 .348-.354c.087-.158.131-.343.131-.554v-.174l-.791.137-.124.018a3.548 3.548 0 0 0-.429.1.521.521 0 0 0-.249.155.486.486 0 0 0-.094.318Zm4.64.684c-.299 0-.56-.068-.784-.205a1.373 1.373 0 0 1-.517-.566 1.858 1.858 0 0 1-.18-.828c0-.307.06-.581.18-.821.125-.245.299-.436.523-.573a1.48 1.48 0 0 1 .778-.205c.216 0 .408.056.579.168a.877.877 0 0 1 .367.435v-.528h.485v2.974c0 .427-.133.755-.398.983-.262.232-.612.348-1.052.348-.232 0-.444-.039-.634-.118a1.293 1.293 0 0 1-.48-.336 1.194 1.194 0 0 1-.255-.504l.535-.037c.067.162.17.286.312.373a.962.962 0 0 0 .522.137c.299 0 .529-.064.691-.193.166-.124.249-.305.249-.541v-.548a1.07 1.07 0 0 1-.398.436 1.008 1.008 0 0 1-.523.149Zm-.946-1.599c0 .216.037.409.112.579a.92.92 0 0 0 .324.392.91.91 0 0 0 .51.143.82.82 0 0 0 .479-.143.963.963 0 0 0 .33-.392c.079-.17.118-.363.118-.579.004-.212-.031-.4-.106-.566a.9.9 0 0 0-.323-.398.863.863 0 0 0-.498-.144.865.865 0 0 0-.834.536 1.37 1.37 0 0 0-.112.572Zm3.239.124c0-.348.061-.651.181-.908.124-.261.301-.463.529-.604.228-.141.493-.211.796-.211.253 0 .486.058.697.174.212.116.382.299.51.548.133.249.206.56.218.933l.006.23h-2.395c.02.34.114.606.28.797.17.186.398.28.684.28.183 0 .349-.05.498-.15a.913.913 0 0 0 .336-.41l.548.037a1.378 1.378 0 0 1-.529.734 1.421 1.421 0 0 1-.853.274c-.303 0-.568-.071-.796-.212a1.399 1.399 0 0 1-.529-.597 2.171 2.171 0 0 1-.181-.915Zm2.384-.292c-.046-.328-.148-.566-.305-.716a.794.794 0 0 0-.573-.23.876.876 0 0 0-.647.249c-.162.162-.263.394-.305.697h1.83Z" fill="#7D7D7D"/><path d="M155.507 658.779c.037.199.107.376.211.529.104.153.237.272.398.355.166.083.355.124.567.124.174 0 .327-.025.46-.075a.694.694 0 0 0 .317-.23.596.596 0 0 0 .119-.373c0-.22-.098-.402-.293-.548-.195-.149-.502-.284-.921-.404-.385-.108-.701-.261-.945-.461a.961.961 0 0 1-.368-.784c0-.24.061-.452.181-.634.12-.183.284-.324.491-.423.212-.1.448-.15.71-.15.286 0 .545.06.778.181.236.12.425.288.566.504.141.211.226.45.255.715l-.548.038a1.088 1.088 0 0 0-.186-.486.935.935 0 0 0-.374-.323 1.082 1.082 0 0 0-.504-.118.9.9 0 0 0-.585.192.622.622 0 0 0-.236.504c0 .162.048.295.143.399.1.103.22.184.361.242.141.058.334.123.579.193.012 0 .031.006.056.019.419.124.755.294 1.008.51a.984.984 0 0 1 .379.784 1.1 1.1 0 0 1-.211.672 1.31 1.31 0 0 1-.554.423 1.842 1.842 0 0 1-.722.143c-.299 0-.572-.062-.821-.186a1.538 1.538 0 0 1-.859-1.295l.548-.037Zm3.307-.205c0-.349.061-.651.181-.909.124-.261.301-.462.529-.603.228-.141.493-.212.796-.212.253 0 .486.058.697.174.212.117.382.299.51.548.133.249.206.56.218.933l.006.231h-2.395c.02.34.114.605.28.796.17.187.398.28.684.28a.88.88 0 0 0 .498-.149.921.921 0 0 0 .336-.411l.548.037a1.384 1.384 0 0 1-.529.735 1.427 1.427 0 0 1-.853.273c-.303 0-.568-.07-.796-.211a1.396 1.396 0 0 1-.529-.598 2.17 2.17 0 0 1-.181-.914Zm2.384-.293c-.046-.327-.148-.566-.305-.715a.79.79 0 0 0-.573-.23.879.879 0 0 0-.647.248c-.162.162-.263.395-.305.697h1.83Zm1.69-1.356.018.46a.856.856 0 0 1 .268-.398.656.656 0 0 1 .417-.137.45.45 0 0 1 .348.15c.091.099.164.257.218.472a.953.953 0 0 1 .28-.454.653.653 0 0 1 .442-.168c.253 0 .435.112.547.336.116.22.174.573.174 1.058v1.979h-.51v-1.979c0-.34-.027-.581-.081-.722-.054-.145-.145-.218-.273-.218-.1 0-.185.038-.256.112a.79.79 0 0 0-.155.324 1.96 1.96 0 0 0-.056.504v1.979h-.51v-1.979c0-.336-.031-.577-.094-.722-.058-.145-.159-.218-.305-.218-.083 0-.157.038-.224.112a.843.843 0 0 0-.149.324c-.033.141-.05.309-.05.504v1.979h-.51v-3.298h.461Zm5.311 0v3.298h-.51v-3.298h.51Zm0 0v.454H166.5v-.454h1.699Zm1.008 2.843v.455H166.5v-.455h2.707Zm-1.008-3.963v.622h-.579v-.622h.579Zm2.405 0v1.568a.995.995 0 0 1 .399-.386c.174-.091.381-.137.622-.137.307 0 .564.079.771.237.208.157.363.367.467.628.104.257.156.544.156.859 0 .315-.052.603-.156.865-.104.261-.259.47-.467.628-.207.154-.464.23-.771.23-.249 0-.463-.047-.641-.143a1.019 1.019 0 0 1-.411-.417l-.018.486h-.461v-4.418h.51Zm-.043 2.769c0 .22.033.423.099.61.071.186.177.338.318.454a.838.838 0 0 0 .541.174c.324 0 .564-.118.722-.355.162-.24.243-.535.243-.883 0-.361-.081-.66-.243-.896-.158-.241-.398-.361-.722-.361a.838.838 0 0 0-.541.174c-.141.116-.247.27-.318.461a1.853 1.853 0 0 0-.099.622Zm4.627 1.723c-.303 0-.568-.07-.797-.211a1.407 1.407 0 0 1-.522-.598 2.095 2.095 0 0 1-.187-.914c0-.349.062-.651.187-.909.124-.261.298-.462.522-.603.229-.141.494-.212.797-.212.303 0 .566.071.79.212.228.141.404.342.529.603.124.258.187.56.187.909 0 .348-.063.653-.187.914a1.402 1.402 0 0 1-.529.598 1.45 1.45 0 0 1-.79.211Zm0-.485c.307 0 .545-.108.715-.324.17-.219.255-.524.255-.914s-.085-.693-.255-.909c-.17-.22-.408-.329-.715-.329s-.546.109-.716.329c-.17.216-.255.519-.255.909s.085.695.255.914c.17.216.409.324.716.324Zm5.212-.044v.455h-2.707v-.455h2.707Zm-1.55.455v-3.584c0-.133-.031-.228-.093-.287-.058-.062-.149-.093-.274-.093h-.784v-.454h.784c.282 0 .498.072.647.218.154.141.23.346.23.616v3.584h-.51Zm4.652-4.418h.51v4.418h-.46l-.019-.486a1.01 1.01 0 0 1-.41.417 1.336 1.336 0 0 1-.641.143c-.307 0-.565-.076-.772-.23a1.443 1.443 0 0 1-.467-.628 2.343 2.343 0 0 1-.155-.865c0-.315.052-.602.155-.859.104-.261.26-.471.467-.628.207-.158.465-.237.772-.237.24 0 .446.046.616.137.174.091.309.22.404.386v-1.568Zm-.062 3.379c.07-.187.106-.39.106-.61 0-.228-.036-.436-.106-.622a.997.997 0 0 0-.317-.461.818.818 0 0 0-.536-.174c-.323 0-.566.12-.728.361-.157.236-.236.535-.236.896 0 .348.079.643.236.883.162.237.405.355.728.355a.818.818 0 0 0 .536-.174c.145-.116.25-.268.317-.454Z" fill="#171717"/><path d="M154.878 647.805h.535l.411 4.119h-.05l.498-3.746h.523l.497 3.746h-.049l.41-4.119h.535l-.448 4.418h-.827l-.467-3.815h.174l-.466 3.815h-.828l-.448-4.418Zm3.936 2.769c0-.349.061-.651.181-.909.124-.261.301-.462.529-.603.228-.141.493-.212.796-.212.253 0 .486.058.697.174.212.117.382.299.51.548.133.249.206.56.218.933l.006.231h-2.395c.02.34.114.605.28.796.17.187.398.28.684.28a.88.88 0 0 0 .498-.149.921.921 0 0 0 .336-.411l.548.037a1.384 1.384 0 0 1-.529.735 1.427 1.427 0 0 1-.853.273c-.303 0-.568-.07-.796-.211a1.396 1.396 0 0 1-.529-.598 2.17 2.17 0 0 1-.181-.914Zm2.384-.293c-.046-.327-.148-.566-.305-.715a.79.79 0 0 0-.573-.23.879.879 0 0 0-.647.248c-.162.162-.263.395-.305.697h1.83Zm3.27-1.356v3.298h-.51v-3.298h.51Zm0 0v.454h-1.699v-.454h1.699Zm1.008 2.843v.455h-2.707v-.455h2.707Zm-1.008-3.963v.622h-.579v-.622h.579Zm3.246 4.243c-.299 0-.56-.068-.784-.205a1.367 1.367 0 0 1-.517-.566 1.858 1.858 0 0 1-.18-.828c0-.307.06-.58.18-.821.125-.245.299-.436.523-.572a1.48 1.48 0 0 1 .778-.206c.215 0 .408.056.578.168a.87.87 0 0 1 .367.436v-.529h.486v2.974c0 .427-.133.755-.399.983-.261.233-.611.349-1.051.349-.232 0-.444-.04-.635-.119a1.267 1.267 0 0 1-.479-.336 1.194 1.194 0 0 1-.255-.504l.535-.037c.066.162.17.286.311.373.145.092.32.137.523.137.299 0 .529-.064.691-.193.165-.124.248-.304.248-.541v-.547a1.067 1.067 0 0 1-.398.435.995.995 0 0 1-.522.149Zm-.946-1.599c0 .216.037.409.112.579a.906.906 0 0 0 .323.392.915.915 0 0 0 .511.143.82.82 0 0 0 .479-.143.947.947 0 0 0 .329-.392c.079-.17.119-.363.119-.579a1.3 1.3 0 0 0-.106-.566.909.909 0 0 0-.324-.398.862.862 0 0 0-.497-.143.862.862 0 0 0-.834.535 1.377 1.377 0 0 0-.112.572Zm3.961-2.644v1.854l-.075-.087a.885.885 0 0 1 .392-.535c.195-.125.419-.187.672-.187.361 0 .637.116.828.349.191.232.286.533.286.902v2.122h-.51v-1.935c0-.32-.058-.558-.174-.716-.112-.158-.291-.236-.536-.236-.269 0-.485.083-.647.248-.157.166-.236.401-.236.704v1.935h-.51v-4.418h.51Zm4.446.249v3.273c0 .137.038.244.112.323.075.079.181.118.318.118h.821v.455h-.821c-.32 0-.556-.079-.71-.237-.153-.157-.23-.379-.23-.666v-3.266h.51Zm1.263.871v.454h-2.656v-.454h2.656Z" fill="#7D7D7D"/><path d="M218.62 598.027v.491a8.007 8.007 0 0 0-1.113 1.898 5.307 5.307 0 0 0-.405 2.028h-.547c0-.697.13-1.373.392-2.028a7.424 7.424 0 0 1 1.095-1.879h-2.551v-.51h3.129Zm.626 1.319c.042-.274.131-.517.268-.728.137-.216.317-.384.541-.504a1.58 1.58 0 0 1 .772-.187c.265 0 .504.056.715.168.212.108.378.257.498.448a1.19 1.19 0 0 1-.118 1.437c-.199.233-.489.463-.871.691a4.906 4.906 0 0 0-.821.604c-.27.244-.409.464-.417.659h2.445v.51h-3.092c0-.365.07-.678.211-.939.141-.266.311-.481.51-.647.199-.17.461-.357.784-.56.067-.046.131-.085.193-.119.062-.045.127-.091.193-.136.195-.141.346-.283.454-.424a.71.71 0 0 0 .168-.435.704.704 0 0 0-.41-.647.944.944 0 0 0-.442-.1c-.274 0-.5.083-.678.249-.179.162-.297.394-.355.697l-.548-.037Zm3.831-.199h.46l.025.721-.056-.099a1.03 1.03 0 0 1 .398-.517 1.2 1.2 0 0 1 .672-.18c.312 0 .573.079.784.236.216.154.376.361.48.623.103.257.155.545.155.864 0 .316-.052.604-.155.865a1.405 1.405 0 0 1-.48.623c-.211.157-.472.236-.784.236-.174 0-.333-.027-.479-.081a1.033 1.033 0 0 1-.367-.243 1.033 1.033 0 0 1-.218-.385l.075-.087v1.655h-.51v-4.231Zm.448 1.648c0 .22.035.424.106.61.07.187.178.338.323.454a.85.85 0 0 0 .535.168c.316 0 .554-.118.716-.354.162-.237.243-.529.243-.878 0-.348-.081-.64-.243-.877-.162-.24-.4-.361-.716-.361a.83.83 0 0 0-.535.174 1.04 1.04 0 0 0-.323.455c-.071.186-.106.39-.106.609Zm6.108-1.648-1.139 1.611 1.195 1.686h-.623l-.896-1.294-.902 1.294h-.622l1.207-1.692-1.145-1.605h.622l.84 1.219.834-1.219h.629Z" fill="#171717"/><path d="M215.951 593.001c.037.199.108.375.212.529.103.153.236.271.398.354.166.083.355.125.566.125.174 0 .328-.025.461-.075a.72.72 0 0 0 .317-.23.598.598 0 0 0 .118-.373c0-.22-.097-.403-.292-.548-.195-.149-.502-.284-.921-.404-.386-.108-.701-.262-.946-.461a.96.96 0 0 1-.367-.784 1.132 1.132 0 0 1 .672-1.058c.211-.099.448-.149.709-.149.286 0 .546.06.778.18.236.121.425.289.566.504.141.212.226.451.255.716l-.547.037a1.079 1.079 0 0 0-.187-.485.943.943 0 0 0-.373-.324 1.1 1.1 0 0 0-.504-.118.896.896 0 0 0-.585.193.62.62 0 0 0-.237.504c0 .162.048.295.144.398.099.104.219.185.36.243.141.058.334.122.579.193.013 0 .031.006.056.019.419.124.755.294 1.008.51.253.211.38.473.38.784a1.1 1.1 0 0 1-.212.672 1.326 1.326 0 0 1-.554.423 1.855 1.855 0 0 1-.721.143c-.299 0-.573-.062-.822-.187a1.569 1.569 0 0 1-.597-.522 1.522 1.522 0 0 1-.261-.772l.547-.037Zm5.231-1.854v3.297h-.511v-3.297h.511Zm0 0v.454h-1.699v-.454h1.699Zm1.008 2.843v.454h-2.707v-.454h2.707Zm-1.008-3.963v.622h-.579v-.622h.579Zm2.461 3.963h2.147v.454h-2.701v-.553l2.103-2.29h-2.04v-.454h2.588v.56l-2.097 2.283Zm3.078-1.195c0-.348.06-.651.18-.908.125-.261.301-.463.529-.604.228-.141.494-.211.796-.211.253 0 .486.058.697.174.212.116.382.299.511.548.132.249.205.56.217.933l.007.23h-2.396c.021.34.114.606.28.797.17.186.398.28.684.28a.9.9 0 0 0 .834-.56l.548.037a1.378 1.378 0 0 1-.529.734 1.419 1.419 0 0 1-.853.274c-.302 0-.568-.071-.796-.212a1.405 1.405 0 0 1-.529-.597 2.171 2.171 0 0 1-.18-.915Zm2.383-.292c-.046-.328-.147-.566-.305-.716a.794.794 0 0 0-.573-.23.876.876 0 0 0-.647.249c-.161.162-.263.394-.305.697h1.83Z" fill="#7D7D7D"/><path d="M218.129 658.804h.51v.51h-.51v.909h-.523v-.909h-2.29v-.51l2.259-2.999h.554v2.999Zm-.523 0v-2.196l-1.642 2.196h1.642Zm3.103 1.518a1.91 1.91 0 0 1-.803-.162 1.357 1.357 0 0 1-.554-.454 1.198 1.198 0 0 1-.205-.697c0-.269.075-.506.224-.709.153-.207.363-.365.628-.473a1.167 1.167 0 0 1-.479-.361.908.908 0 0 1-.162-.547c0-.228.061-.434.181-.616.12-.187.282-.332.485-.436.208-.108.436-.162.685-.162.253 0 .481.054.684.162.208.104.369.249.485.436.121.182.181.388.181.616a.902.902 0 0 1-.168.547 1.12 1.12 0 0 1-.473.361c.265.112.473.27.622.473.154.203.23.44.23.709 0 .266-.068.498-.205.697a1.343 1.343 0 0 1-.56.454 1.868 1.868 0 0 1-.796.162Zm-1.015-1.356c0 .249.094.452.28.61.187.157.432.236.735.236.302 0 .547-.079.734-.236a.761.761 0 0 0 .28-.61.762.762 0 0 0-.131-.436.812.812 0 0 0-.361-.292 1.226 1.226 0 0 0-.522-.106c-.195 0-.37.035-.523.106a.818.818 0 0 0-.361.292.762.762 0 0 0-.131.436Zm.212-2.047c0 .132.033.251.1.354.07.104.165.185.286.243.12.058.259.087.417.087a.954.954 0 0 0 .417-.087.672.672 0 0 0 .28-.243.617.617 0 0 0 .105-.354.628.628 0 0 0-.105-.361.658.658 0 0 0-.28-.249.902.902 0 0 0-.417-.093.896.896 0 0 0-.417.093.648.648 0 0 0-.386.61Zm3.171.006h.46l.025.722-.056-.1c.083-.224.216-.396.398-.516.183-.121.407-.181.672-.181.312 0 .573.079.784.237.216.153.376.361.48.622.103.257.155.545.155.865 0 .315-.052.603-.155.865a1.407 1.407 0 0 1-.48.622c-.211.158-.472.236-.784.236-.174 0-.333-.027-.479-.081a1.045 1.045 0 0 1-.367-.242 1.046 1.046 0 0 1-.218-.386l.075-.087v1.655h-.51v-4.231Zm.448 1.649c0 .22.035.423.106.61.07.186.178.338.323.454a.85.85 0 0 0 .535.168c.316 0 .554-.118.716-.355.162-.236.243-.529.243-.877 0-.349-.081-.641-.243-.878-.162-.24-.4-.36-.716-.36a.83.83 0 0 0-.535.174 1.03 1.03 0 0 0-.323.454c-.071.187-.106.39-.106.61Zm6.108-1.649-1.139 1.611 1.195 1.687h-.623l-.896-1.295-.902 1.295h-.622l1.207-1.693-1.145-1.605h.622l.84 1.219.834-1.219h.629Z" fill="#171717"/><path d="M215.951 650.779c.037.199.108.376.212.529.103.153.236.272.398.355.166.083.355.124.566.124.174 0 .328-.025.461-.075a.705.705 0 0 0 .317-.23.596.596 0 0 0 .118-.373c0-.22-.097-.402-.292-.548-.195-.149-.502-.284-.921-.404-.386-.108-.701-.261-.946-.461a.96.96 0 0 1-.367-.784c0-.24.06-.452.18-.634.121-.183.284-.324.492-.423.211-.1.448-.15.709-.15.286 0 .546.06.778.181.236.12.425.288.566.504.141.211.226.45.255.715l-.547.038a1.078 1.078 0 0 0-.187-.486.932.932 0 0 0-.373-.323 1.088 1.088 0 0 0-.504-.118.896.896 0 0 0-.585.192.62.62 0 0 0-.237.504c0 .162.048.295.144.399.099.103.219.184.36.242.141.058.334.123.579.193.013 0 .031.006.056.019.419.124.755.294 1.008.51.253.212.38.473.38.784a1.1 1.1 0 0 1-.212.672 1.31 1.31 0 0 1-.554.423 1.837 1.837 0 0 1-.721.143c-.299 0-.573-.062-.822-.186a1.58 1.58 0 0 1-.597-.523 1.519 1.519 0 0 1-.261-.772l.547-.037Zm5.231-1.854v3.298h-.511v-3.298h.511Zm0 0v.454h-1.699v-.454h1.699Zm1.008 2.843v.455h-2.707v-.455h2.707Zm-1.008-3.963v.622h-.579v-.622h.579Zm2.461 3.963h2.147v.455h-2.701v-.554l2.103-2.29h-2.04v-.454h2.588v.56l-2.097 2.283Zm3.078-1.194c0-.349.06-.651.18-.909.125-.261.301-.462.529-.603.228-.141.494-.212.796-.212.253 0 .486.058.697.174.212.117.382.299.511.548.132.249.205.56.217.933l.007.231h-2.396c.021.34.114.605.28.796.17.187.398.28.684.28a.88.88 0 0 0 .498-.149c.15-.1.262-.237.336-.411l.548.037a1.384 1.384 0 0 1-.529.735 1.425 1.425 0 0 1-.853.273c-.302 0-.568-.07-.796-.211a1.402 1.402 0 0 1-.529-.598 2.17 2.17 0 0 1-.18-.914Zm2.383-.293c-.046-.327-.147-.566-.305-.715a.79.79 0 0 0-.573-.23.879.879 0 0 0-.647.248c-.161.162-.263.395-.305.697h1.83ZM261.011 590.027h.522v4.168l-.267-.261h2.607v.51h-2.862v-4.417Zm5.504 1.12v3.297h-.51v-3.297h.51Zm0 0v.454h-1.699v-.454h1.699Zm1.008 2.843v.454h-2.707v-.454h2.707Zm-1.008-3.963v.622h-.579v-.622h.579Zm2.455 1.12.019.846-.062-.069c.054-.282.178-.493.373-.634.195-.146.429-.218.703-.218.361 0 .637.116.828.348.191.233.286.533.286.903v2.121h-.517v-1.972c0-.315-.056-.552-.168-.709-.112-.158-.29-.237-.535-.237-.273 0-.489.083-.647.249-.157.162-.236.394-.236.697v1.972h-.51v-3.297h.466Zm3.084 1.648c0-.348.06-.651.181-.908.124-.261.3-.463.528-.604.229-.141.494-.211.797-.211.253 0 .485.058.697.174.211.116.381.299.51.548.133.249.205.56.218.933l.006.23h-2.396c.021.34.114.606.28.797.17.186.399.28.685.28.182 0 .348-.05.498-.15a.913.913 0 0 0 .336-.41l.547.037a1.373 1.373 0 0 1-.529.734 1.418 1.418 0 0 1-.852.274c-.303 0-.568-.071-.797-.212a1.397 1.397 0 0 1-.528-.597 2.156 2.156 0 0 1-.181-.915Zm2.383-.292c-.045-.328-.147-.566-.305-.716a.79.79 0 0 0-.572-.23.874.874 0 0 0-.647.249c-.162.162-.264.394-.305.697h1.829Zm5.104-2.476h.522v2.146l-.261-.211h2.327l-.261.211v-2.146h.523v4.417h-.523v-2.177l.261.211h-2.327l.261-.211v2.177h-.522v-4.417Zm3.706 2.768c0-.348.06-.651.18-.908.125-.261.301-.463.529-.604.228-.141.494-.211.797-.211.253 0 .485.058.696.174.212.116.382.299.511.548.132.249.205.56.217.933l.007.23h-2.396c.021.34.114.606.28.797.17.186.398.28.685.28a.9.9 0 0 0 .833-.56l.548.037a1.378 1.378 0 0 1-.529.734 1.418 1.418 0 0 1-.852.274c-.303 0-.569-.071-.797-.212a1.405 1.405 0 0 1-.529-.597 2.171 2.171 0 0 1-.18-.915Zm2.383-.292c-.046-.328-.147-.566-.305-.716a.792.792 0 0 0-.572-.23.877.877 0 0 0-.648.249c-.161.162-.263.394-.304.697h1.829Zm3.27-1.356v3.297h-.51v-3.297h.51Zm0 0v.454h-1.698v-.454h1.698Zm1.008 2.843v.454h-2.706v-.454h2.706Zm-1.008-3.963v.622h-.578v-.622h.578Zm3.246 4.243c-.299 0-.56-.068-.784-.205a1.373 1.373 0 0 1-.517-.566 1.858 1.858 0 0 1-.18-.828c0-.307.06-.581.18-.821.125-.245.299-.436.523-.573.228-.137.488-.205.778-.205.216 0 .408.056.579.168a.877.877 0 0 1 .367.435v-.528h.485v2.974c0 .427-.133.755-.398.983-.262.232-.612.348-1.052.348-.232 0-.444-.039-.634-.118a1.293 1.293 0 0 1-.48-.336 1.194 1.194 0 0 1-.255-.504l.535-.037a.771.771 0 0 0 .312.373.962.962 0 0 0 .522.137c.299 0 .529-.064.691-.193.166-.124.249-.305.249-.541v-.548a1.07 1.07 0 0 1-.398.436 1.008 1.008 0 0 1-.523.149Zm-.946-1.599c0 .216.037.409.112.579a.92.92 0 0 0 .324.392.91.91 0 0 0 .51.143.82.82 0 0 0 .479-.143.963.963 0 0 0 .33-.392c.079-.17.118-.363.118-.579.004-.212-.031-.4-.106-.566a.9.9 0 0 0-.323-.398.863.863 0 0 0-.498-.144.865.865 0 0 0-.834.536 1.37 1.37 0 0 0-.112.572Zm3.961-2.644v1.854l-.074-.087a.879.879 0 0 1 .392-.535c.195-.125.419-.187.672-.187.36 0 .636.116.827.348.191.233.286.533.286.903v2.121h-.51v-1.935c0-.319-.058-.558-.174-.715-.112-.158-.29-.237-.535-.237-.27 0-.486.083-.647.249-.158.166-.237.4-.237.703v1.935h-.51v-4.417h.51Zm4.447.248v3.273c0 .137.037.245.112.324.074.079.18.118.317.118h.821v.454h-.821c-.319 0-.556-.078-.709-.236-.154-.158-.231-.38-.231-.666v-3.267h.511Zm1.263.872v.454h-2.657v-.454h2.657Z" fill="#7D7D7D"/><path d="M263.954 598.027v.491a8.011 8.011 0 0 0-1.114 1.898 5.305 5.305 0 0 0-.404 2.028h-.548c0-.697.131-1.373.392-2.028a7.424 7.424 0 0 1 1.095-1.879h-2.551v-.51h3.13Zm.626 1.319c.041-.274.13-.517.267-.728.137-.216.318-.384.542-.504.228-.125.485-.187.771-.187.266 0 .504.056.716.168.211.108.377.257.498.448.124.191.186.404.186.641 0 .294-.101.56-.305.796-.199.233-.489.463-.871.691a4.947 4.947 0 0 0-.821.604c-.27.244-.409.464-.417.659h2.445v.51h-3.092c0-.365.07-.678.211-.939a2.14 2.14 0 0 1 .511-.647c.199-.17.46-.357.784-.56.066-.046.13-.085.193-.119a7.98 7.98 0 0 1 .192-.136c.195-.141.347-.283.455-.424a.71.71 0 0 0 .168-.435.707.707 0 0 0-.411-.647.944.944 0 0 0-.442-.1c-.274 0-.5.083-.678.249-.178.162-.297.394-.355.697l-.547-.037Zm3.83-.199h.461l.025.721-.056-.099c.083-.224.215-.396.398-.517.182-.12.406-.18.672-.18.311 0 .572.079.784.236.216.154.375.361.479.623.104.257.155.545.155.864 0 .316-.051.604-.155.865a1.403 1.403 0 0 1-.479.623c-.212.157-.473.236-.784.236-.174 0-.334-.027-.479-.081a1.024 1.024 0 0 1-.367-.243 1.02 1.02 0 0 1-.218-.385l.074-.087v1.655h-.51v-4.231Zm.448 1.648c0 .22.036.424.106.61.071.187.178.338.324.454a.848.848 0 0 0 .535.168c.315 0 .553-.118.715-.354.162-.237.243-.529.243-.878 0-.348-.081-.64-.243-.877-.162-.24-.4-.361-.715-.361a.829.829 0 0 0-.535.174 1.041 1.041 0 0 0-.324.455 1.72 1.72 0 0 0-.106.609Zm6.108-1.648-1.139 1.611 1.195 1.686h-.622l-.896-1.294-.902 1.294h-.623l1.208-1.692-1.145-1.605h.622l.84 1.219.834-1.219h.628Z" fill="#171717"/><path d="M333.011 590.027h.522v4.168l-.267-.261h2.607v.51h-2.862v-4.417Zm3.581 2.768c0-.348.06-.651.181-.908.124-.261.3-.463.529-.604.228-.141.493-.211.796-.211.253 0 .485.058.697.174.211.116.382.299.51.548.133.249.205.56.218.933l.006.23h-2.395c.02.34.114.606.28.797.17.186.398.28.684.28.183 0 .348-.05.498-.15a.913.913 0 0 0 .336-.41l.547.037a1.367 1.367 0 0 1-.529.734 1.418 1.418 0 0 1-.852.274c-.303 0-.568-.071-.796-.212a1.393 1.393 0 0 1-.529-.597 2.156 2.156 0 0 1-.181-.915Zm2.383-.292c-.045-.328-.147-.566-.305-.716a.79.79 0 0 0-.572-.23.876.876 0 0 0-.647.249c-.162.162-.263.394-.305.697h1.829Zm2.785-2.228v3.273c0 .137.038.245.112.324.075.079.181.118.318.118h.821v.454h-.821c-.32 0-.556-.078-.71-.236-.153-.158-.23-.38-.23-.666v-3.267h.51Zm1.264.872v.454h-2.657v-.454h2.657Zm2.467-.872v3.273c0 .137.038.245.112.324.075.079.181.118.318.118h.821v.454h-.821c-.32 0-.556-.078-.71-.236-.153-.158-.23-.38-.23-.666v-3.267h.51Zm1.264.872v.454h-2.657v-.454h2.657Zm1.03 1.648c0-.348.06-.651.18-.908.125-.261.301-.463.529-.604.228-.141.494-.211.797-.211.253 0 .485.058.697.174.211.116.381.299.51.548.133.249.205.56.218.933l.006.23h-2.396c.021.34.114.606.28.797.17.186.399.28.685.28.182 0 .348-.05.498-.15a.913.913 0 0 0 .336-.41l.547.037a1.373 1.373 0 0 1-.529.734 1.418 1.418 0 0 1-.852.274c-.303 0-.569-.071-.797-.212a1.405 1.405 0 0 1-.529-.597 2.171 2.171 0 0 1-.18-.915Zm2.383-.292c-.046-.328-.147-.566-.305-.716a.79.79 0 0 0-.572-.23.874.874 0 0 0-.647.249c-.162.162-.264.394-.305.697h1.829Zm2.742-1.356.056.871-.056-.05c.041-.282.132-.49.273-.622.141-.133.338-.199.592-.199h.659v.454h-.659a.81.81 0 0 0-.417.099.597.597 0 0 0-.249.299 1.241 1.241 0 0 0-.081.479v1.966h-.51v-3.297h.392Zm-.106 0v.454h-1.151v-.454h1.151Zm1.307 2.843v.454h-2.458v-.454h2.458Zm5.29-.989a1.4 1.4 0 0 0 .211.529c.104.153.237.271.399.354.165.083.354.125.566.125.174 0 .327-.025.46-.075a.718.718 0 0 0 .318-.23.604.604 0 0 0 .118-.373c0-.22-.098-.403-.293-.548-.195-.149-.502-.284-.921-.404-.385-.108-.701-.262-.945-.461a.96.96 0 0 1-.367-.784 1.132 1.132 0 0 1 .672-1.058c.211-.099.448-.149.709-.149.286 0 .545.06.778.18.236.121.425.289.566.504.141.212.226.451.255.716l-.548.037a1.077 1.077 0 0 0-.186-.485.945.945 0 0 0-.374-.324 1.094 1.094 0 0 0-.504-.118.895.895 0 0 0-.584.193.62.62 0 0 0-.237.504c0 .162.048.295.143.398.1.104.22.185.361.243.141.058.334.122.579.193.012 0 .031.006.056.019.419.124.755.294 1.008.51a.982.982 0 0 1 .379.784 1.1 1.1 0 0 1-.211.672 1.326 1.326 0 0 1-.554.423 1.86 1.86 0 0 1-.722.143c-.298 0-.572-.062-.821-.187a1.569 1.569 0 0 1-.597-.522 1.533 1.533 0 0 1-.262-.772l.548-.037Zm3.395-1.854h.46l.025.721-.056-.099a1.03 1.03 0 0 1 .398-.517 1.2 1.2 0 0 1 .672-.18c.311 0 .573.079.784.236.216.154.376.361.479.623.104.257.156.545.156.864 0 .316-.052.604-.156.865a1.396 1.396 0 0 1-.479.623c-.211.157-.473.236-.784.236-.174 0-.334-.027-.479-.081a1.033 1.033 0 0 1-.367-.243 1.033 1.033 0 0 1-.218-.385l.075-.087v1.655h-.51v-4.231Zm.448 1.648c0 .22.035.424.105.61.071.187.179.338.324.454a.85.85 0 0 0 .535.168c.315 0 .554-.118.716-.354.161-.237.242-.529.242-.878 0-.348-.081-.64-.242-.877-.162-.24-.401-.361-.716-.361a.83.83 0 0 0-.535.174 1.05 1.05 0 0 0-.324.455 1.72 1.72 0 0 0-.105.609Zm3.245-.678c.058-.311.21-.562.454-.753.249-.195.544-.292.884-.292.411 0 .734.118.971.355.236.236.354.578.354 1.026v1.326c0 .07.017.124.05.161.033.034.085.05.156.05h.137v.454h-.168a.736.736 0 0 1-.461-.137.616.616 0 0 1-.218-.379.933.933 0 0 1-.385.423 1.229 1.229 0 0 1-.654.168c-.22 0-.419-.037-.597-.112a.99.99 0 0 1-.423-.324.832.832 0 0 1-.156-.497c0-.216.05-.388.15-.517a.918.918 0 0 1 .404-.292c.174-.071.4-.133.678-.187l.977-.187c-.004-.277-.079-.487-.224-.628-.141-.145-.338-.218-.591-.218a.804.804 0 0 0-.516.168.757.757 0 0 0-.274.436l-.548-.044Zm.479 1.469a.42.42 0 0 0 .181.348c.12.091.296.135.529.131.182 0 .348-.042.497-.125a.869.869 0 0 0 .349-.354c.087-.158.131-.343.131-.554v-.174l-.791.137-.124.018a3.502 3.502 0 0 0-.429.1.521.521 0 0 0-.249.155.48.48 0 0 0-.094.318Zm5.573-1.338a.792.792 0 0 0-.292-.504.858.858 0 0 0-.548-.187c-.307 0-.545.11-.716.33-.17.216-.255.519-.255.908 0 .39.085.695.255.915.171.216.409.324.716.324a.846.846 0 0 0 .56-.199.885.885 0 0 0 .299-.554l.541.031a1.359 1.359 0 0 1-.753 1.064 1.484 1.484 0 0 1-.647.143c-.303 0-.568-.071-.796-.212a1.412 1.412 0 0 1-.523-.597 2.097 2.097 0 0 1-.187-.915c0-.348.062-.651.187-.908.124-.261.299-.463.523-.604.228-.141.493-.211.796-.211.224 0 .436.048.635.143.203.091.369.224.497.398.129.174.21.376.243.604l-.535.031Zm3.283-1.101v3.297h-.51v-3.297h.51Zm0 0v.454h-1.699v-.454h1.699Zm1.008 2.843v.454h-2.707v-.454h2.707Zm-1.008-3.963v.622h-.579v-.622h.579Zm2.455 1.12.019.846-.062-.069c.054-.282.178-.493.373-.634.195-.146.429-.218.703-.218.361 0 .637.116.828.348.191.233.286.533.286.903v2.121h-.516v-1.972c0-.315-.056-.552-.168-.709-.112-.158-.291-.237-.536-.237-.273 0-.489.083-.647.249-.157.162-.236.394-.236.697v1.972h-.51v-3.297h.466Zm4.521 3.123c-.298 0-.56-.068-.784-.205a1.364 1.364 0 0 1-.516-.566 1.858 1.858 0 0 1-.18-.828c0-.307.06-.581.18-.821.124-.245.299-.436.523-.573.228-.137.487-.205.777-.205.216 0 .409.056.579.168a.872.872 0 0 1 .367.435v-.528h.486v2.974c0 .427-.133.755-.399.983-.261.232-.612.348-1.051.348-.233 0-.444-.039-.635-.118a1.29 1.29 0 0 1-.479-.336 1.182 1.182 0 0 1-.255-.504l.535-.037c.066.162.17.286.311.373a.963.963 0 0 0 .523.137c.298 0 .529-.064.69-.193.166-.124.249-.305.249-.541v-.548a1.064 1.064 0 0 1-.398.436c-.166.099-.34.149-.523.149Zm-.945-1.599c0 .216.037.409.112.579a.912.912 0 0 0 .323.392.91.91 0 0 0 .51.143.822.822 0 0 0 .48-.143.96.96 0 0 0 .329-.392c.079-.17.119-.363.119-.579.004-.212-.032-.4-.106-.566a.863.863 0 0 0-.822-.542.902.902 0 0 0-.51.144.857.857 0 0 0-.323.392 1.37 1.37 0 0 0-.112.572Z" fill="#7D7D7D"/><path d="M335.338 600.341v.473h-2.054v-.473h2.054Zm3.718-1.331a.829.829 0 0 0-.323-.423.91.91 0 0 0-.529-.15c-.357 0-.637.166-.84.498-.203.328-.313.796-.33 1.406l-.106-.025a1.282 1.282 0 0 1 1.238-.877c.287 0 .54.066.76.199a1.3 1.3 0 0 1 .516.541c.124.233.187.498.187.797 0 .315-.067.591-.199.827a1.384 1.384 0 0 1-.554.548 1.613 1.613 0 0 1-.797.193c-.203 0-.398-.037-.585-.112a1.63 1.63 0 0 1-.516-.355 1.564 1.564 0 0 1-.355-.653 3.514 3.514 0 0 1-.112-.927c0-.469.056-.896.168-1.282.112-.39.293-.701.542-.933.253-.237.58-.355.983-.355.22 0 .423.041.61.124.19.079.352.197.485.355.137.154.238.342.305.566l-.548.038Zm-1.972 1.966c-.004.203.035.386.118.547a.958.958 0 0 0 .361.38c.153.087.33.131.529.131a.986.986 0 0 0 .504-.131.915.915 0 0 0 .354-.38c.088-.161.131-.344.131-.547 0-.199-.041-.376-.124-.529a.872.872 0 0 0-.336-.367.938.938 0 0 0-.492-.131c-.195 0-.373.044-.535.131a.952.952 0 0 0-.38.367c-.087.153-.13.33-.13.529Zm3.326-1.829h.461l.025.721-.056-.099c.083-.224.215-.396.398-.517.182-.12.406-.18.672-.18.311 0 .572.079.784.236.216.154.375.361.479.623.104.257.155.545.155.864 0 .316-.051.604-.155.865a1.403 1.403 0 0 1-.479.623c-.212.157-.473.236-.784.236-.174 0-.334-.027-.479-.081a1.024 1.024 0 0 1-.367-.243 1.02 1.02 0 0 1-.218-.385l.074-.087v1.655h-.51v-4.231Zm.448 1.648c0 .22.036.424.106.61.071.187.178.338.324.454a.848.848 0 0 0 .535.168c.315 0 .553-.118.715-.354.162-.237.243-.529.243-.878 0-.348-.081-.64-.243-.877-.162-.24-.4-.361-.715-.361a.829.829 0 0 0-.535.174 1.041 1.041 0 0 0-.324.455 1.72 1.72 0 0 0-.106.609Zm6.108-1.648-1.139 1.611 1.195 1.686h-.622l-.896-1.294-.902 1.294h-.623l1.208-1.692-1.145-1.605h.622l.84 1.219.834-1.219h.628Z" fill="#171717"/><path d="M261.011 647.805h.522v4.169l-.267-.262h2.607v.511h-2.862v-4.418Zm5.504 1.12v3.298h-.51v-3.298h.51Zm0 0v.454h-1.699v-.454h1.699Zm1.008 2.843v.455h-2.707v-.455h2.707Zm-1.008-3.963v.622h-.579v-.622h.579Zm2.455 1.12.019.846-.062-.068c.054-.282.178-.494.373-.635.195-.145.429-.218.703-.218.361 0 .637.116.828.349.191.232.286.533.286.902v2.122h-.517v-1.973c0-.315-.056-.551-.168-.709-.112-.158-.29-.237-.535-.237-.273 0-.489.083-.647.249-.157.162-.236.394-.236.697v1.973h-.51v-3.298h.466Zm3.084 1.649c0-.349.06-.651.181-.909.124-.261.3-.462.528-.603.229-.141.494-.212.797-.212.253 0 .485.058.697.174.211.117.381.299.51.548.133.249.205.56.218.933l.006.231h-2.396c.021.34.114.605.28.796.17.187.399.28.685.28.182 0 .348-.05.498-.149a.921.921 0 0 0 .336-.411l.547.037a1.379 1.379 0 0 1-.529.735 1.424 1.424 0 0 1-.852.273c-.303 0-.568-.07-.797-.211a1.394 1.394 0 0 1-.528-.598 2.154 2.154 0 0 1-.181-.914Zm2.383-.293c-.045-.327-.147-.566-.305-.715a.786.786 0 0 0-.572-.23.877.877 0 0 0-.647.248c-.162.162-.264.395-.305.697h1.829Zm5.104-2.476h.522v2.147l-.261-.212h2.327l-.261.212v-2.147h.523v4.418h-.523v-2.178l.261.211h-2.327l.261-.211v2.178h-.522v-4.418Zm3.706 2.769c0-.349.06-.651.18-.909.125-.261.301-.462.529-.603.228-.141.494-.212.797-.212.253 0 .485.058.696.174.212.117.382.299.511.548.132.249.205.56.217.933l.007.231h-2.396c.021.34.114.605.28.796.17.187.398.28.685.28a.88.88 0 0 0 .497-.149c.15-.1.262-.237.336-.411l.548.037a1.384 1.384 0 0 1-.529.735 1.424 1.424 0 0 1-.852.273c-.303 0-.569-.07-.797-.211a1.402 1.402 0 0 1-.529-.598 2.17 2.17 0 0 1-.18-.914Zm2.383-.293c-.046-.327-.147-.566-.305-.715a.788.788 0 0 0-.572-.23.88.88 0 0 0-.648.248c-.161.162-.263.395-.304.697h1.829Zm3.27-1.356v3.298h-.51v-3.298h.51Zm0 0v.454h-1.698v-.454h1.698Zm1.008 2.843v.455h-2.706v-.455h2.706Zm-1.008-3.963v.622h-.578v-.622h.578Zm3.246 4.243c-.299 0-.56-.068-.784-.205a1.373 1.373 0 0 1-.517-.566 1.858 1.858 0 0 1-.18-.828c0-.307.06-.58.18-.821.125-.245.299-.436.523-.572.228-.137.488-.206.778-.206.216 0 .408.056.579.168a.876.876 0 0 1 .367.436v-.529h.485v2.974c0 .427-.133.755-.398.983-.262.233-.612.349-1.052.349-.232 0-.444-.04-.634-.119a1.27 1.27 0 0 1-.48-.336 1.194 1.194 0 0 1-.255-.504l.535-.037a.771.771 0 0 0 .312.373.954.954 0 0 0 .522.137c.299 0 .529-.064.691-.193.166-.124.249-.304.249-.541v-.547a1.074 1.074 0 0 1-.398.435.999.999 0 0 1-.523.149Zm-.946-1.599c0 .216.037.409.112.579a.915.915 0 0 0 .324.392.91.91 0 0 0 .51.143.82.82 0 0 0 .479-.143.957.957 0 0 0 .33-.392c.079-.17.118-.363.118-.579a1.3 1.3 0 0 0-.106-.566.9.9 0 0 0-.323-.398.863.863 0 0 0-.498-.143.902.902 0 0 0-.51.143.87.87 0 0 0-.324.392 1.377 1.377 0 0 0-.112.572Zm3.961-2.644v1.854l-.074-.087a.882.882 0 0 1 .392-.535c.195-.125.419-.187.672-.187.36 0 .636.116.827.349.191.232.286.533.286.902v2.122h-.51v-1.935c0-.32-.058-.558-.174-.716-.112-.158-.29-.236-.535-.236-.27 0-.486.083-.647.248-.158.166-.237.401-.237.704v1.935h-.51v-4.418h.51Zm4.447.249v3.273c0 .137.037.244.112.323.074.079.18.118.317.118h.821v.455h-.821c-.319 0-.556-.079-.709-.237-.154-.157-.231-.379-.231-.666v-3.266h.511Zm1.263.871v.454h-2.657v-.454h2.657Z" fill="#7D7D7D"/><path d="M263.605 656.315h-1.916l-.224 1.655-.05-.13a.807.807 0 0 1 .405-.399 1.38 1.38 0 0 1 .622-.149 1.333 1.333 0 0 1 1.207.734c.124.228.187.488.187.778 0 .295-.065.558-.193.79a1.382 1.382 0 0 1-.535.535c-.229.129-.49.193-.784.193a1.54 1.54 0 0 1-1.257-.61 1.194 1.194 0 0 1-.243-.622l.548-.037a.831.831 0 0 0 .329.554c.183.137.411.205.685.205.174 0 .33-.041.466-.124a.879.879 0 0 0 .318-.361c.079-.154.118-.328.118-.523 0-.199-.044-.375-.131-.529a.875.875 0 0 0-.348-.355.996.996 0 0 0-.504-.124c-.174 0-.342.046-.504.137a.74.74 0 0 0-.336.355h-.566l.342-2.483h2.364v.51Zm3.451.473a.829.829 0 0 0-.323-.423.91.91 0 0 0-.529-.149c-.357 0-.637.165-.84.497-.203.328-.313.797-.33 1.407l-.106-.025a1.295 1.295 0 0 1 1.238-.878c.287 0 .54.067.76.199.224.129.396.309.516.542.124.232.187.498.187.796 0 .315-.067.591-.199.828a1.382 1.382 0 0 1-.554.547 1.613 1.613 0 0 1-.797.193c-.203 0-.398-.037-.585-.112a1.642 1.642 0 0 1-.516-.354 1.568 1.568 0 0 1-.355-.654 3.503 3.503 0 0 1-.112-.927c0-.469.056-.896.168-1.282.112-.39.293-.701.542-.933.253-.236.58-.355.983-.355.22 0 .423.042.61.125.19.079.352.197.485.354.137.154.238.343.305.567l-.548.037Zm-1.972 1.966c-.004.203.035.386.118.548a.955.955 0 0 0 .361.379c.153.087.33.131.529.131a.986.986 0 0 0 .504-.131.912.912 0 0 0 .354-.379 1.13 1.13 0 0 0 .131-.548c0-.199-.041-.375-.124-.529a.878.878 0 0 0-.336-.367.937.937 0 0 0-.492-.13c-.195 0-.373.043-.535.13a.958.958 0 0 0-.38.367c-.087.154-.13.33-.13.529Zm3.326-1.829h.461l.025.722-.056-.1c.083-.224.215-.396.398-.516.182-.121.406-.181.672-.181.311 0 .572.079.784.237.216.153.375.361.479.622.104.257.155.545.155.865 0 .315-.051.603-.155.865a1.405 1.405 0 0 1-.479.622c-.212.158-.473.236-.784.236-.174 0-.334-.027-.479-.081a1.036 1.036 0 0 1-.367-.242 1.032 1.032 0 0 1-.218-.386l.074-.087v1.655h-.51v-4.231Zm.448 1.649c0 .22.036.423.106.61.071.186.178.338.324.454a.848.848 0 0 0 .535.168c.315 0 .553-.118.715-.355.162-.236.243-.529.243-.877 0-.349-.081-.641-.243-.878-.162-.24-.4-.36-.715-.36a.829.829 0 0 0-.535.174 1.033 1.033 0 0 0-.324.454c-.07.187-.106.39-.106.61Zm6.108-1.649-1.139 1.611 1.195 1.687h-.622l-.896-1.295-.902 1.295h-.623l1.208-1.693-1.145-1.605h.622l.84 1.219.834-1.219h.628Z" fill="#171717"/><path d="M333.373 647.805h.523v4.169l-.267-.262h2.607v.511h-2.863v-4.418Zm3.582 2.769c0-.349.06-.651.18-.909.125-.261.301-.462.529-.603.229-.141.494-.212.797-.212.253 0 .485.058.697.174.211.117.381.299.51.548.133.249.205.56.218.933l.006.231h-2.396c.021.34.114.605.28.796.17.187.399.28.685.28.182 0 .348-.05.498-.149a.921.921 0 0 0 .336-.411l.547.037a1.379 1.379 0 0 1-.529.735 1.424 1.424 0 0 1-.852.273c-.303 0-.568-.07-.797-.211a1.402 1.402 0 0 1-.529-.598 2.17 2.17 0 0 1-.18-.914Zm2.383-.293c-.045-.327-.147-.566-.305-.715a.786.786 0 0 0-.572-.23.877.877 0 0 0-.647.248c-.162.162-.264.395-.305.697h1.829Zm2.785-2.227v3.273c0 .137.038.244.112.323.075.079.181.118.318.118h.821v.455h-.821c-.32 0-.556-.079-.71-.237-.153-.157-.23-.379-.23-.666v-3.266h.51Zm1.263.871v.454h-2.656v-.454h2.656Zm2.468-.871v3.273c0 .137.038.244.112.323.075.079.181.118.318.118h.821v.455h-.821c-.32 0-.556-.079-.71-.237-.153-.157-.23-.379-.23-.666v-3.266h.51Zm1.263.871v.454h-2.657v-.454h2.657Zm1.031 1.649c0-.349.06-.651.18-.909.125-.261.301-.462.529-.603.228-.141.494-.212.797-.212.253 0 .485.058.696.174.212.117.382.299.511.548.132.249.205.56.217.933l.007.231h-2.396c.021.34.114.605.28.796.17.187.398.28.685.28a.88.88 0 0 0 .497-.149c.15-.1.262-.237.336-.411l.548.037a1.384 1.384 0 0 1-.529.735 1.424 1.424 0 0 1-.852.273c-.303 0-.569-.07-.797-.211a1.402 1.402 0 0 1-.529-.598 2.17 2.17 0 0 1-.18-.914Zm2.383-.293c-.046-.327-.147-.566-.305-.715a.788.788 0 0 0-.572-.23.88.88 0 0 0-.648.248c-.161.162-.263.395-.304.697h1.829Zm2.741-1.356.056.871-.056-.05c.042-.282.133-.489.274-.622.141-.133.338-.199.591-.199h.66v.454h-.66a.8.8 0 0 0-.417.1.588.588 0 0 0-.248.298 1.245 1.245 0 0 0-.081.479v1.967h-.511v-3.298h.392Zm-.105 0v.454h-1.151v-.454h1.151Zm1.306 2.843v.455h-2.457v-.455h2.457Zm5.291-.989c.037.199.107.376.211.529.104.153.237.272.398.355.166.083.355.124.567.124.174 0 .327-.025.46-.075a.694.694 0 0 0 .317-.23.596.596 0 0 0 .119-.373c0-.22-.098-.402-.293-.548-.195-.149-.502-.284-.921-.404-.386-.108-.701-.261-.946-.461a.963.963 0 0 1-.367-.784c0-.24.06-.452.181-.634.12-.183.284-.324.491-.423.212-.1.448-.15.71-.15.286 0 .545.06.777.181.237.12.426.288.567.504.141.211.226.45.255.715l-.548.038a1.088 1.088 0 0 0-.186-.486.935.935 0 0 0-.374-.323 1.082 1.082 0 0 0-.504-.118.9.9 0 0 0-.585.192.622.622 0 0 0-.236.504c0 .162.048.295.143.399.1.103.22.184.361.242.141.058.334.123.579.193.012 0 .031.006.056.019.419.124.755.294 1.008.51a.984.984 0 0 1 .379.784 1.1 1.1 0 0 1-.211.672 1.31 1.31 0 0 1-.554.423 1.842 1.842 0 0 1-.722.143c-.299 0-.572-.062-.821-.186a1.538 1.538 0 0 1-.859-1.295l.548-.037Zm3.394-1.854h.461l.025.722-.056-.1c.083-.224.216-.396.398-.516.183-.121.407-.181.672-.181.311 0 .572.079.784.237.216.153.375.361.479.622.104.257.156.545.156.865 0 .315-.052.603-.156.865a1.405 1.405 0 0 1-.479.622c-.212.158-.473.236-.784.236-.174 0-.334-.027-.479-.081a1.036 1.036 0 0 1-.367-.242 1.032 1.032 0 0 1-.218-.386l.075-.087v1.655h-.511v-4.231Zm.448 1.649c0 .22.036.423.106.61.071.186.179.338.324.454a.848.848 0 0 0 .535.168c.315 0 .554-.118.715-.355.162-.236.243-.529.243-.877 0-.349-.081-.641-.243-.878-.161-.24-.4-.36-.715-.36a.829.829 0 0 0-.535.174 1.04 1.04 0 0 0-.324.454c-.07.187-.106.39-.106.61Zm3.246-.678c.058-.312.21-.563.454-.753.249-.195.544-.293.884-.293.41 0 .734.118.97.355.237.236.355.579.355 1.027v1.325c0 .07.017.124.05.162.033.033.085.049.155.049h.137v.455h-.168a.742.742 0 0 1-.46-.137.621.621 0 0 1-.218-.38.93.93 0 0 1-.386.423c-.182.112-.4.168-.653.168-.22 0-.419-.037-.597-.112a.968.968 0 0 1-.423-.323.833.833 0 0 1-.156-.498c0-.216.05-.388.149-.516a.921.921 0 0 1 .405-.293c.174-.07.4-.133.678-.187l.977-.186c-.004-.278-.079-.488-.224-.629-.141-.145-.338-.217-.591-.217a.807.807 0 0 0-.517.168.756.756 0 0 0-.273.435l-.548-.043Zm.479 1.468c0 .141.06.257.181.348.12.092.296.135.528.131.183 0 .349-.041.498-.124a.871.871 0 0 0 .349-.355c.087-.158.13-.342.13-.554v-.174l-.79.137-.124.019a3.602 3.602 0 0 0-.43.099.525.525 0 0 0-.249.156.481.481 0 0 0-.093.317Zm5.573-1.338a.794.794 0 0 0-.293-.504.858.858 0 0 0-.547-.186c-.307 0-.546.109-.716.329-.17.216-.255.519-.255.909s.085.695.255.914c.17.216.409.324.716.324a.84.84 0 0 0 .56-.199.885.885 0 0 0 .299-.554l.541.031a1.38 1.38 0 0 1-.249.641 1.34 1.34 0 0 1-.504.423 1.47 1.47 0 0 1-.647.143c-.303 0-.568-.07-.797-.211a1.407 1.407 0 0 1-.522-.598 2.095 2.095 0 0 1-.187-.914c0-.349.062-.651.187-.909.124-.261.298-.462.522-.603.229-.141.494-.212.797-.212.224 0 .435.048.635.143.203.092.369.224.497.399.129.174.21.375.243.603l-.535.031Zm3.283-1.101v3.298h-.51v-3.298h.51Zm0 0v.454h-1.699v-.454h1.699Zm1.008 2.843v.455h-2.707v-.455h2.707Zm-1.008-3.963v.622h-.579v-.622h.579Zm2.455 1.12.019.846-.062-.068c.053-.282.178-.494.373-.635.195-.145.429-.218.703-.218.361 0 .637.116.828.349.19.232.286.533.286.902v2.122h-.517v-1.973c0-.315-.056-.551-.168-.709-.112-.158-.29-.237-.535-.237-.274 0-.489.083-.647.249-.158.162-.236.394-.236.697v1.973h-.511v-3.298h.467Zm4.521 3.123c-.298 0-.56-.068-.784-.205a1.364 1.364 0 0 1-.516-.566 1.845 1.845 0 0 1-.181-.828c0-.307.06-.58.181-.821.124-.245.298-.436.522-.572.229-.137.488-.206.778-.206.216 0 .409.056.579.168a.876.876 0 0 1 .367.436v-.529h.485v2.974c0 .427-.132.755-.398.983-.261.233-.612.349-1.051.349-.233 0-.444-.04-.635-.119a1.26 1.26 0 0 1-.479-.336 1.171 1.171 0 0 1-.255-.504l.535-.037c.066.162.17.286.311.373a.955.955 0 0 0 .523.137c.298 0 .528-.064.69-.193.166-.124.249-.304.249-.541v-.547a1.067 1.067 0 0 1-.398.435.996.996 0 0 1-.523.149Zm-.946-1.599c0 .216.038.409.112.579a.915.915 0 0 0 .324.392.91.91 0 0 0 .51.143.819.819 0 0 0 .479-.143.957.957 0 0 0 .33-.392c.079-.17.118-.363.118-.579.004-.211-.031-.4-.105-.566a.909.909 0 0 0-.324-.398.863.863 0 0 0-.498-.143.902.902 0 0 0-.51.143.87.87 0 0 0-.324.392 1.393 1.393 0 0 0-.112.572Z" fill="#7D7D7D"/><path d="M335.701 658.12v.472h-2.054v-.472h2.054Zm3.718-1.332a.825.825 0 0 0-.324-.423.907.907 0 0 0-.528-.149c-.357 0-.637.165-.84.497-.204.328-.314.797-.33 1.407l-.106-.025a1.3 1.3 0 0 1 .485-.647c.22-.154.471-.231.753-.231.286 0 .54.067.759.199a1.3 1.3 0 0 1 .517.542c.124.232.186.498.186.796 0 .315-.066.591-.199.828a1.373 1.373 0 0 1-.553.547 1.616 1.616 0 0 1-.797.193c-.203 0-.398-.037-.585-.112a1.631 1.631 0 0 1-.516-.354 1.568 1.568 0 0 1-.355-.654 3.462 3.462 0 0 1-.112-.927c0-.469.056-.896.168-1.282.112-.39.293-.701.541-.933.254-.236.581-.355.984-.355.219 0 .423.042.609.125.191.079.353.197.486.354.137.154.238.343.305.567l-.548.037Zm-1.972 1.966c-.005.203.035.386.118.548a.955.955 0 0 0 .361.379c.153.087.329.131.529.131a.986.986 0 0 0 .504-.131.919.919 0 0 0 .354-.379 1.14 1.14 0 0 0 .131-.548c0-.199-.042-.375-.125-.529a.865.865 0 0 0-.336-.367.936.936 0 0 0-.491-.13c-.195 0-.373.043-.535.13a.958.958 0 0 0-.38.367c-.087.154-.13.33-.13.529Zm3.326-1.829h.461l.024.722-.056-.1a1.02 1.02 0 0 1 .399-.516c.182-.121.406-.181.672-.181.311 0 .572.079.784.237.215.153.375.361.479.622.103.257.155.545.155.865 0 .315-.052.603-.155.865a1.413 1.413 0 0 1-.479.622c-.212.158-.473.236-.784.236a1.36 1.36 0 0 1-.479-.081 1.04 1.04 0 0 1-.368-.242 1.03 1.03 0 0 1-.217-.386l.074-.087v1.655h-.51v-4.231Zm.448 1.649c0 .22.035.423.106.61.07.186.178.338.323.454a.853.853 0 0 0 .536.168c.315 0 .553-.118.715-.355.162-.236.243-.529.243-.877 0-.349-.081-.641-.243-.878-.162-.24-.4-.36-.715-.36a.833.833 0 0 0-.536.174 1.03 1.03 0 0 0-.323.454c-.071.187-.106.39-.106.61Zm6.108-1.649-1.139 1.611 1.195 1.687h-.622l-.896-1.295-.903 1.295h-.622l1.207-1.693-1.145-1.605h.623l.84 1.219.833-1.219h.629Z" fill="#171717"/><path d="M425.593 590.138h2.769v.51h-2.247v1.493h2.135v.504h-2.135v1.911h-.522v-4.418Zm4.89 4.492c-.915 0-1.506-.678-1.506-1.723 0-1.046.591-1.724 1.506-1.724.914 0 1.505.678 1.505 1.724 0 1.045-.591 1.723-1.505 1.723Zm-.971-1.723c0 .771.355 1.238.971 1.238.609 0 .97-.467.97-1.238 0-.772-.361-1.238-.97-1.238-.616 0-.971.466-.971 1.238Zm3.268-1.649h.448l.019.61c.112-.417.361-.61.79-.61h.317v.448h-.317c-.504 0-.747.311-.747.883v1.967h-.51v-3.298Zm3.95-1.12h.51v1.58c.193-.367.579-.535.989-.535.753 0 1.114.554 1.114 1.251v2.122h-.51v-1.935c0-.616-.205-.952-.709-.952-.536 0-.884.336-.884.952v1.935h-.51v-4.418Zm3.239 2.769c0-1.046.591-1.724 1.506-1.724.734 0 1.375.492 1.431 1.655l.006.231h-2.402c.05.678.392 1.076.965 1.076a.904.904 0 0 0 .834-.56l.547.037a1.419 1.419 0 0 1-1.381 1.008c-.915 0-1.506-.678-1.506-1.723Zm.554-.293h1.829c-.093-.697-.466-.945-.877-.945-.529 0-.871.348-.952.945Zm3.183-1.356h.448l.018.61c.112-.417.361-.61.79-.61h.318v.448h-.318c-.504 0-.746.311-.746.883v1.967h-.51v-3.298Zm3.414 3.372c-.915 0-1.506-.678-1.506-1.723 0-1.046.591-1.724 1.506-1.724.914 0 1.506.678 1.506 1.724 0 1.045-.592 1.723-1.506 1.723Zm-.971-1.723c0 .771.355 1.238.971 1.238.61 0 .97-.467.97-1.238 0-.772-.36-1.238-.97-1.238-.616 0-.971.466-.971 1.238Zm4.674-.678c.13-.641.641-1.046 1.344-1.046.852 0 1.325.498 1.325 1.382v1.325c0 .149.062.211.205.211h.131v.455h-.218c-.336 0-.628-.112-.622-.517-.143.311-.516.591-1.039.591-.653 0-1.182-.348-1.182-.933 0-.678.516-.852 1.238-.996l.977-.186c-.006-.573-.274-.846-.815-.846-.423 0-.703.217-.803.603l-.541-.043Zm.479 1.468c0 .268.23.485.715.479.548 0 .977-.386.977-1.151v-.056l-.79.137c-.491.087-.902.124-.902.591Zm3.226-2.439h.448l.018.61c.112-.417.361-.61.79-.61h.318v.448h-.318c-.504 0-.746.311-.746.883v1.967h-.51v-3.298Zm1.908 1.649c0-1.046.591-1.724 1.506-1.724.734 0 1.375.492 1.431 1.655l.006.231h-2.402c.05.678.392 1.076.965 1.076a.904.904 0 0 0 .834-.56l.547.037a1.419 1.419 0 0 1-1.381 1.008c-.915 0-1.506-.678-1.506-1.723Zm.554-.293h1.829c-.093-.697-.466-.945-.877-.945-.529 0-.871.348-.952.945Zm3.063-.385c.131-.641.641-1.046 1.344-1.046.852 0 1.325.498 1.325 1.382v1.325c0 .149.062.211.206.211h.13v.455h-.218c-.336 0-.628-.112-.622-.517-.143.311-.516.591-1.039.591-.653 0-1.182-.348-1.182-.933 0-.678.516-.852 1.238-.996l.977-.186c-.006-.573-.274-.846-.815-.846-.423 0-.703.217-.803.603l-.541-.043Zm.479 1.468c0 .268.23.485.716.479.547 0 .976-.386.976-1.151v-.056l-.79.137c-.491.087-.902.124-.902.591Zm5.086-1.425c-.074-.379-.448-.603-.821-.603-.373 0-.672.192-.672.51.006.323.423.46.796.541.753.143 1.295.355 1.295.996 0 .634-.654.914-1.282.914-.778 0-1.375-.429-1.425-1.107l.535-.038c.062.399.386.66.89.66.336 0 .747-.112.747-.454 0-.398-.473-.442-.853-.535-.61-.143-1.232-.318-1.232-.946-.006-.629.504-1.027 1.257-1.027.66 0 1.195.417 1.3 1.052l-.535.037Zm4.246 2.358c-.915 0-1.506-.678-1.506-1.723 0-1.046.591-1.724 1.506-1.724.914 0 1.506.678 1.506 1.724 0 1.045-.592 1.723-1.506 1.723Zm-.971-1.723c0 .771.355 1.238.971 1.238.61 0 .97-.467.97-1.238 0-.772-.36-1.238-.97-1.238-.616 0-.971.466-.971 1.238Zm3.268-1.649h.467l.019.566c.168-.442.56-.641 1.014-.641.753 0 1.114.554 1.114 1.251v2.122h-.511v-1.973c0-.61-.205-.946-.709-.946-.535 0-.884.336-.884.946v1.973h-.51v-3.298Zm-46.612 9h.467l.019.56c.149-.405.491-.635.952-.635.472 0 .815.255.958.697.143-.448.491-.697 1.008-.697.659 0 1.045.461 1.045 1.251v2.122h-.51v-1.973c0-.603-.237-.946-.641-.946-.516 0-.815.349-.815.952v1.967h-.51v-1.973c0-.591-.243-.946-.641-.946-.51 0-.822.361-.822.946v1.973h-.51v-3.298Zm5.289.971c.13-.641.64-1.046 1.344-1.046.852 0 1.325.498 1.325 1.382v1.325c0 .149.062.211.205.211h.131v.455h-.218c-.336 0-.628-.112-.622-.517-.143.311-.517.591-1.039.591-.654 0-1.182-.348-1.182-.933 0-.678.516-.852 1.238-.996l.977-.186c-.007-.573-.274-.846-.815-.846-.424 0-.704.217-.803.603l-.541-.043Zm.479 1.468c0 .268.23.485.715.479.548 0 .977-.386.977-1.151v-.056l-.79.137c-.492.087-.902.124-.902.591Zm3.225-2.439h.448l.019.61c.112-.417.361-.61.79-.61h.318v.448h-.318c-.504 0-.746.311-.746.883v1.967h-.511v-3.298Zm2.309-1.12h.511v2.906l1.605-1.786h.697l-1.307 1.4 1.369 1.898h-.628l-1.089-1.55-.647.697v.853h-.511v-4.418Zm3.148 2.769c0-1.046.592-1.724 1.506-1.724.734 0 1.375.492 1.431 1.655l.007.231h-2.402c.05.678.392 1.076.964 1.076a.903.903 0 0 0 .834-.56l.548.037a1.42 1.42 0 0 1-1.382 1.008c-.914 0-1.506-.678-1.506-1.723Zm.554-.293h1.83c-.094-.697-.467-.945-.878-.945-.529 0-.871.348-.952.945Zm3.355-2.103h.51v.747h.877v.454h-.877v1.973c0 .28.137.416.398.416h.473v.455h-.473c-.585 0-.908-.311-.908-.871v-1.973h-.486v-.454h.486v-.747Zm2.155.747h.51v3.298h-.51v-3.298Zm-.012-.517v-.591h.535v.591h-.535Zm1.58.517h.467l.018.566c.168-.442.56-.641 1.014-.641.753 0 1.114.554 1.114 1.251v2.122h-.51v-1.973c0-.61-.205-.946-.709-.946-.535 0-.884.336-.884.946v1.973h-.51v-3.298Zm4.72 3.123c-.902 0-1.481-.672-1.481-1.599 0-.927.591-1.599 1.481-1.599.442 0 .803.249.946.604v-.529h.491v2.974c0 .865-.591 1.332-1.449 1.332-.704 0-1.232-.386-1.376-.959l.536-.037c.13.317.416.51.84.51.584 0 .939-.261.939-.734v-.547a1.04 1.04 0 0 1-.927.584Zm-.946-1.599c0 .647.355 1.114.946 1.114.566 0 .927-.473.933-1.114.013-.641-.348-1.113-.933-1.113-.591 0-.946.466-.946 1.113Zm4.994 2.707v-4.231h.461l.018.504c.181-.373.542-.579 1.021-.579.983 0 1.425.809 1.425 1.724 0 .914-.442 1.723-1.425 1.723-.461 0-.809-.193-.99-.547v1.406h-.51Zm.454-2.582c0 .628.287 1.232.959 1.232.684 0 .964-.591.964-1.232s-.28-1.238-.964-1.238c-.672 0-.959.609-.959 1.238Zm3.139-.678c.131-.641.641-1.046 1.344-1.046.853 0 1.325.498 1.325 1.382v1.325c0 .149.063.211.206.211h.13v.455h-.217c-.336 0-.629-.112-.623-.517-.143.311-.516.591-1.039.591-.653 0-1.182-.348-1.182-.933 0-.678.517-.852 1.238-.996l.977-.186c-.006-.573-.274-.846-.815-.846-.423 0-.703.217-.803.603l-.541-.043Zm.479 1.468c0 .268.23.485.716.479.547 0 .977-.386.977-1.151v-.056l-.791.137c-.491.087-.902.124-.902.591Zm4.458.684c-.902 0-1.481-.672-1.481-1.599 0-.927.591-1.599 1.481-1.599.442 0 .803.249.946.604v-.529h.491v2.974c0 .865-.591 1.332-1.449 1.332-.703 0-1.232-.386-1.375-.959l.535-.037c.13.317.417.51.84.51.585 0 .939-.261.939-.734v-.547a1.04 1.04 0 0 1-.927.584Zm-.946-1.599c0 .647.355 1.114.946 1.114.566 0 .927-.473.933-1.114.013-.641-.348-1.113-.933-1.113-.591 0-.946.466-.946 1.113Zm3.202.125c0-1.046.591-1.724 1.506-1.724.734 0 1.375.492 1.431 1.655l.006.231h-2.401c.049.678.392 1.076.964 1.076a.904.904 0 0 0 .834-.56l.547.037a1.419 1.419 0 0 1-1.381 1.008c-.915 0-1.506-.678-1.506-1.723Zm.554-.293h1.829c-.093-.697-.466-.945-.877-.945-.529 0-.871.348-.952.945Zm5.086-.342c-.075-.379-.448-.603-.821-.603-.374 0-.672.192-.672.51.006.323.423.46.796.541.753.143 1.294.355 1.294.996 0 .634-.653.914-1.282.914-.777 0-1.375-.429-1.424-1.107l.535-.038c.062.399.385.66.889.66.336 0 .747-.112.747-.454 0-.398-.473-.442-.852-.535-.61-.143-1.232-.318-1.232-.946-.007-.629.504-1.027 1.257-1.027.659 0 1.194.417 1.3 1.052l-.535.037Zm1.184 1.618h.66v.666h-.66v-.666ZM425.461 647.258h2.769v.51h-2.246v1.494h2.134v.504h-2.134v1.91h-.523v-4.418Zm4.89 4.492c-.914 0-1.506-.678-1.506-1.723s.592-1.724 1.506-1.724c.915 0 1.506.679 1.506 1.724s-.591 1.723-1.506 1.723Zm-.97-1.723c0 .771.354 1.238.97 1.238.61 0 .971-.467.971-1.238 0-.772-.361-1.238-.971-1.238-.616 0-.97.466-.97 1.238Zm3.268-1.649h.448l.018.61c.112-.417.361-.61.791-.61h.317v.448h-.317c-.504 0-.747.311-.747.884v1.966h-.51v-3.298Zm3.949-1.12h.511v1.58c.192-.367.578-.535.989-.535.753 0 1.114.554 1.114 1.251v2.122h-.511v-1.935c0-.616-.205-.952-.709-.952-.535 0-.883.336-.883.952v1.935h-.511v-4.418Zm3.24 2.769c0-1.045.591-1.724 1.505-1.724.735 0 1.375.492 1.431 1.655l.007.231h-2.402c.05.678.392 1.076.964 1.076a.901.901 0 0 0 .834-.56l.548.037a1.42 1.42 0 0 1-1.382 1.008c-.914 0-1.505-.678-1.505-1.723Zm.553-.293h1.83c-.094-.696-.467-.945-.878-.945-.529 0-.871.348-.952.945Zm3.183-1.356h.448l.019.61c.112-.417.361-.61.79-.61h.317v.448h-.317c-.504 0-.747.311-.747.884v1.966h-.51v-3.298Zm3.414 3.372c-.914 0-1.505-.678-1.505-1.723s.591-1.724 1.505-1.724c.915 0 1.506.679 1.506 1.724s-.591 1.723-1.506 1.723Zm-.97-1.723c0 .771.354 1.238.97 1.238.61 0 .971-.467.971-1.238 0-.772-.361-1.238-.971-1.238-.616 0-.97.466-.97 1.238Zm4.673-.678c.131-.641.641-1.046 1.344-1.046.853 0 1.326.498 1.326 1.382v1.325c0 .149.062.212.205.212h.131v.454h-.218c-.336 0-.629-.112-.622-.517-.143.311-.517.591-1.039.591-.654 0-1.183-.348-1.183-.933 0-.678.517-.852 1.239-.995l.976-.187c-.006-.573-.273-.846-.815-.846-.423 0-.703.217-.802.603l-.542-.043Zm.479 1.468c0 .268.231.485.716.479.548 0 .977-.386.977-1.151v-.056l-.79.137c-.492.087-.903.124-.903.591Zm3.226-2.439h.448l.019.61c.112-.417.361-.61.79-.61h.317v.448h-.317c-.504 0-.747.311-.747.884v1.966h-.51v-3.298Zm1.909 1.649c0-1.045.591-1.724 1.505-1.724.735 0 1.376.492 1.432 1.655l.006.231h-2.402c.05.678.392 1.076.964 1.076a.901.901 0 0 0 .834-.56l.548.037a1.42 1.42 0 0 1-1.382 1.008c-.914 0-1.505-.678-1.505-1.723Zm.553-.293h1.83c-.094-.696-.467-.945-.878-.945-.528 0-.871.348-.952.945Zm3.063-.385c.131-.641.641-1.046 1.344-1.046.853 0 1.326.498 1.326 1.382v1.325c0 .149.062.212.205.212h.131v.454h-.218c-.336 0-.628-.112-.622-.517-.143.311-.517.591-1.039.591-.654 0-1.183-.348-1.183-.933 0-.678.517-.852 1.239-.995l.977-.187c-.007-.573-.274-.846-.816-.846-.423 0-.703.217-.802.603l-.542-.043Zm.48 1.468c0 .268.23.485.715.479.548 0 .977-.386.977-1.151v-.056l-.79.137c-.492.087-.902.124-.902.591Zm5.086-1.425c-.075-.379-.448-.603-.821-.603-.374 0-.672.193-.672.51.006.323.423.46.796.541.753.143 1.294.355 1.294.996 0 .634-.653.914-1.282.914-.777 0-1.375-.429-1.424-1.107l.535-.037c.062.398.385.659.889.659.336 0 .747-.112.747-.454 0-.398-.473-.442-.852-.535-.61-.143-1.232-.318-1.232-.946-.007-.628.504-1.027 1.257-1.027.659 0 1.194.417 1.3 1.052l-.535.037Zm4.245 2.358c-.914 0-1.506-.678-1.506-1.723s.592-1.724 1.506-1.724c.915 0 1.506.679 1.506 1.724s-.591 1.723-1.506 1.723Zm-.97-1.723c0 .771.354 1.238.97 1.238.61 0 .971-.467.971-1.238 0-.772-.361-1.238-.971-1.238-.616 0-.97.466-.97 1.238Zm3.268-1.649h.466l.019.566c.168-.442.56-.641 1.014-.641.753 0 1.114.554 1.114 1.251v2.122h-.51v-1.973c0-.609-.205-.945-.709-.945-.536 0-.884.336-.884.945v1.973h-.51v-3.298Zm5.189 0h.467l.018.56c.15-.404.492-.635.952-.635.473 0 .815.255.959.697.143-.448.491-.697 1.008-.697.659 0 1.045.461 1.045 1.251v2.122h-.51v-1.973c0-.603-.237-.945-.641-.945-.517 0-.815.348-.815.952v1.966h-.511v-1.973c0-.591-.242-.945-.64-.945-.511 0-.822.36-.822.945v1.973h-.51v-3.298Zm6.58 3.372c-.915 0-1.506-.678-1.506-1.723s.591-1.724 1.506-1.724 1.506.679 1.506 1.724-.591 1.723-1.506 1.723Zm-.971-1.723c0 .771.355 1.238.971 1.238.61 0 .971-.467.971-1.238 0-.772-.361-1.238-.971-1.238-.616 0-.971.466-.971 1.238Zm3.269-2.769h.51v1.568c.187-.336.535-.523 1.02-.523.952 0 1.394.809 1.394 1.724 0 .915-.442 1.723-1.394 1.723-.51 0-.865-.211-1.051-.56l-.019.486h-.46v-4.418Zm.466 2.769c0 .628.28 1.238.959 1.238.69 0 .964-.597.964-1.238 0-.66-.274-1.257-.964-1.257-.679 0-.959.604-.959 1.257Zm3.246-1.649h.511v3.298h-.511v-3.298Zm-.012-.516v-.592h.535v.592h-.535Zm1.592-.604h.511v3.758c0 .143.068.206.211.206h.28v.454h-.354c-.392 0-.648-.255-.648-.635v-3.783Zm1.483 2.769c0-1.045.591-1.724 1.506-1.724.734 0 1.375.492 1.431 1.655l.006.231h-2.401c.049.678.392 1.076.964 1.076a.901.901 0 0 0 .834-.56l.547.037a1.418 1.418 0 0 1-1.381 1.008c-.915 0-1.506-.678-1.506-1.723Zm.554-.293h1.829c-.093-.696-.466-.945-.877-.945-.529 0-.871.348-.952.945Zm-68.008 7.644h.466l.019.56c.149-.404.492-.635.952-.635.473 0 .815.255.958.697.143-.448.492-.697 1.008-.697.66 0 1.046.461 1.046 1.251v2.122h-.511v-1.973c0-.603-.236-.945-.64-.945-.517 0-.816.348-.816.952v1.966h-.51v-1.973c0-.591-.242-.945-.641-.945-.51 0-.821.36-.821.945v1.973h-.51v-3.298Zm5.288.971c.131-.641.641-1.046 1.344-1.046.853 0 1.325.498 1.325 1.382v1.325c0 .149.063.212.206.212h.13v.454h-.217c-.336 0-.629-.112-.623-.517-.143.311-.516.591-1.039.591-.653 0-1.182-.348-1.182-.933 0-.678.517-.852 1.238-.995l.977-.187c-.006-.573-.274-.846-.815-.846-.423 0-.703.217-.803.603l-.541-.043Zm.479 1.468c0 .268.23.485.716.479.547 0 .977-.386.977-1.151v-.056l-.791.137c-.491.087-.902.124-.902.591Zm3.226-2.439h.448l.019.61c.112-.417.36-.61.79-.61h.317v.448h-.317c-.504 0-.747.311-.747.884v1.966h-.51v-3.298Zm2.309-1.12h.51v2.906l1.605-1.786h.697l-1.306 1.4 1.369 1.898h-.629l-1.089-1.55-.647.697v.853h-.51v-4.418Zm3.148 2.769c0-1.045.591-1.724 1.506-1.724.734 0 1.375.492 1.431 1.655l.006.231h-2.402c.05.678.392 1.076.965 1.076a.902.902 0 0 0 .834-.56l.547.037a1.42 1.42 0 0 1-1.381 1.008c-.915 0-1.506-.678-1.506-1.723Zm.554-.293h1.829c-.093-.696-.467-.945-.877-.945-.529 0-.871.348-.952.945Zm3.354-2.103h.51v.747h.878v.454h-.878v1.973c0 .28.137.417.399.417h.473v.454h-.473c-.585 0-.909-.311-.909-.871v-1.973h-.485v-.454h.485v-.747Zm2.156.747h.51v3.298h-.51v-3.298Zm-.013-.516v-.592h.535v.592h-.535Zm1.58.516h.467l.019.566c.168-.442.56-.641 1.014-.641.753 0 1.114.554 1.114 1.251v2.122h-.51v-1.973c0-.609-.206-.945-.71-.945-.535 0-.883.336-.883.945v1.973h-.511v-3.298Zm4.721 3.124c-.903 0-1.481-.672-1.481-1.6 0-.927.591-1.599 1.481-1.599.441 0 .802.249.945.604v-.529h.492v2.974c0 .865-.591 1.332-1.45 1.332-.703 0-1.232-.386-1.375-.958l.535-.038c.131.318.417.51.84.51.585 0 .94-.261.94-.734v-.547a1.042 1.042 0 0 1-.927.585Zm-.946-1.6c0 .648.354 1.114.946 1.114.566 0 .927-.473.933-1.114.012-.64-.349-1.113-.933-1.113-.592 0-.946.466-.946 1.113Zm4.994 2.707v-4.231h.46l.019.504c.18-.373.541-.579 1.02-.579.983 0 1.425.809 1.425 1.724 0 .915-.442 1.723-1.425 1.723-.46 0-.809-.192-.989-.547v1.406h-.51Zm.454-2.582c0 .628.286 1.232.958 1.232.685 0 .965-.591.965-1.232s-.28-1.238-.965-1.238c-.672 0-.958.609-.958 1.238Zm3.139-.678c.13-.641.641-1.046 1.344-1.046.852 0 1.325.498 1.325 1.382v1.325c0 .149.062.212.205.212h.131v.454h-.218c-.336 0-.628-.112-.622-.517-.143.311-.516.591-1.039.591-.653 0-1.182-.348-1.182-.933 0-.678.516-.852 1.238-.995l.977-.187c-.006-.573-.274-.846-.815-.846-.423 0-.703.217-.803.603l-.541-.043Zm.479 1.468c0 .268.23.485.715.479.548 0 .977-.386.977-1.151v-.056l-.79.137c-.492.087-.902.124-.902.591Zm4.458.685c-.903 0-1.481-.672-1.481-1.6 0-.927.591-1.599 1.481-1.599.441 0 .802.249.945.604v-.529h.492v2.974c0 .865-.591 1.332-1.45 1.332-.703 0-1.232-.386-1.375-.958l.535-.038c.131.318.417.51.84.51.585 0 .94-.261.94-.734v-.547a1.042 1.042 0 0 1-.927.585Zm-.946-1.6c0 .648.355 1.114.946 1.114.566 0 .927-.473.933-1.114.012-.64-.348-1.113-.933-1.113-.591 0-.946.466-.946 1.113Zm3.202.125c0-1.045.591-1.724 1.506-1.724.734 0 1.375.492 1.431 1.655l.006.231h-2.402c.05.678.392 1.076.965 1.076a.9.9 0 0 0 .833-.56l.548.037a1.42 1.42 0 0 1-1.381 1.008c-.915 0-1.506-.678-1.506-1.723Zm.554-.293h1.829c-.093-.696-.467-.945-.877-.945-.529 0-.872.348-.952.945Zm5.085-.342c-.074-.379-.448-.603-.821-.603-.373 0-.672.193-.672.51.006.323.423.46.797.541.752.143 1.294.355 1.294.996 0 .634-.654.914-1.282.914-.778 0-1.375-.429-1.425-1.107l.535-.037c.062.398.386.659.89.659.336 0 .747-.112.747-.454 0-.398-.473-.442-.853-.535-.61-.143-1.232-.318-1.232-.946-.006-.628.504-1.027 1.257-1.027.66 0 1.195.417 1.301 1.052l-.536.037Zm1.185 1.618h.659v.666h-.659v-.666Z" fill="#7D7D7D"/><path stroke="#A8A8A8" stroke-width=".671" d="M21.333 566.776h501.334M21.333 623.665h501.334M21.333 682.332h501.334"/><path d="M396.153 439.111h-5.184l-.576-6.848c-2.112 4.736-7.488 7.872-13.632 7.872-12.992 0-21.056-10.368-21.056-23.68 0-13.376 8.064-23.808 21.376-23.808 10.048 0 16.768 6.016 18.88 14.912l-8.384.448c-1.28-4.928-4.928-8.256-10.56-8.256-9.024 0-12.992 7.488-12.992 16.704 0 9.152 4.032 16.576 12.992 16.576 6.656 0 10.432-4.608 11.072-10.816h-11.136v-6.528h19.2v23.424Zm2.023-16.96c0-10.752 6.592-17.728 16.64-17.728 8.576 0 15.552 5.76 15.808 17.792v2.112h-24.128c.384 5.76 3.392 9.152 8.32 9.152 3.136 0 5.952-1.792 7.232-4.736l8.128.576c-2.048 6.528-8.128 10.56-15.36 10.56-10.048 0-16.64-6.976-16.64-17.728Zm8.384-3.264h15.872c-.704-5.952-3.968-8.128-7.616-8.128-4.608 0-7.552 3.072-8.256 8.128Zm27.574-13.696h7.936v33.92h-7.936v-33.92Zm-.128-4.8v-6.72h8.256v6.72h-8.256Zm33.625 15.616c-.64-3.456-3.84-5.504-7.04-5.504-3.264 0-5.824 1.664-5.76 4.416.064 2.88 3.648 4.032 6.976 4.672 9.024 1.536 14.272 3.904 14.272 10.496 0 6.72-6.592 9.792-14.336 9.792-9.152 0-15.36-4.352-15.936-11.52l8.128-.448c.64 3.584 3.328 5.824 7.68 5.824 2.816 0 6.272-1.024 6.272-3.904-.064-3.328-3.904-3.84-7.424-4.608-8-1.6-13.824-3.712-13.824-10.112 0-6.656 5.504-10.752 14.4-10.752 7.808 0 13.504 4.352 14.592 11.264l-8 .384Zm14.035-18.496h7.936v7.68h8.96v6.208h-8.96v17.408c0 2.688 1.28 4.032 3.84 4.032h5.12v6.272h-6.336c-6.912 0-10.56-3.52-10.56-10.304v-17.408h-5.312v-6.208h5.312v-7.68Zm-82.899 77.368c1.024 5.376 4.8 8.896 11.072 8.896 4.928 0 8.256-1.92 8.192-5.696 0-3.84-3.328-6.08-11.2-8.064-8.832-2.112-15.296-6.016-15.296-13.312 0-8.064 6.528-13.056 16.192-13.056 10.048 0 16.768 6.144 17.792 14.976l-8.192.448c-.64-5.12-4.352-8.384-9.728-8.384-4.608 0-7.936 2.368-7.808 6.08.064 4.544 5.568 5.888 10.688 7.232 9.28 2.24 15.808 6.528 15.808 13.632 0 8.576-7.68 13.248-16.768 13.248-10.624 0-18.176-6.08-18.944-15.552l8.192-.448Zm30.463-8.384c1.344-6.976 6.784-11.072 14.976-11.072 9.728 0 14.848 5.056 14.848 14.528v11.84c0 1.92.768 2.432 2.112 2.432h1.28v5.888l-1.984.064c-2.752 0-7.872-.064-8.384-5.248-1.6 3.328-5.376 5.952-11.2 5.952-6.784 0-12.224-3.648-12.224-9.664 0-6.656 4.928-8.768 12.864-10.304l9.536-1.92c-.064-5.184-2.24-7.68-6.848-7.68-3.648 0-6.016 1.92-6.848 5.632l-8.128-.448Zm7.616 14.464c0 2.368 1.984 4.224 6.08 4.224 4.736 0 8.256-3.392 8.256-10.304v-.32l-6.528 1.152c-4.416.832-7.808 1.28-7.808 5.248Zm28.143-24.768h7.168l.256 5.568c1.792-4.48 5.632-6.336 10.176-6.336 7.552 0 11.584 5.312 11.584 12.864v21.824h-7.936v-19.328c0-5.76-1.536-8.896-5.952-8.896-4.608 0-7.36 3.136-7.36 8.896v19.328h-7.936v-33.92Zm52.934 10.816c-.64-3.456-3.84-5.504-7.04-5.504-3.264 0-5.824 1.664-5.76 4.416.064 2.88 3.648 4.032 6.976 4.672 9.024 1.536 14.272 3.904 14.272 10.496 0 6.72-6.592 9.792-14.336 9.792-9.152 0-15.36-4.352-15.936-11.52l8.128-.448c.64 3.584 3.328 5.824 7.68 5.824 2.816 0 6.272-1.024 6.272-3.904-.064-3.328-3.904-3.84-7.424-4.608-8-1.6-13.824-3.712-13.824-10.112 0-6.656 5.504-10.752 14.4-10.752 7.808 0 13.504 4.352 14.592 11.264l-8 .384Z" fill="#171717"/></svg>